<svg width="1152" height="1024" viewBox="0 0 1152 1024" fill="none" xmlns="http://www.w3.org/2000/svg">
<g >
<rect width="1152" height="1024" fill="#EDEDED"/>
<g >
<rect x="440" y="896" width="64" height="128" rx="12" fill="#60A5FA"/>
<g  clip-path="url(#clip0_966_1099)">
<path  d="M471.977 946.5C474.876 946.5 477.227 944.149 477.227 941.25C477.227 938.351 474.876 936 471.977 936C469.077 936 466.727 938.351 466.727 941.25C466.727 944.149 469.077 946.5 471.977 946.5Z" fill="white"/>
<path  d="M484.996 962.053L484.028 958.827V958.817L481.922 951.799H481.918L481.682 951.007C481.424 950.138 480.892 949.376 480.166 948.834C479.439 948.292 478.557 947.999 477.651 947.999H466.401C465.495 947.999 464.613 948.291 463.886 948.833C463.16 949.375 462.628 950.138 462.37 951.007L462.135 951.799H462.129L460.023 958.817V958.827L459.051 962.053C458.759 963.027 459.267 964.084 460.23 964.41C460.468 964.491 460.721 964.523 460.972 964.505C461.223 964.486 461.468 964.417 461.692 964.302C461.916 964.187 462.115 964.027 462.276 963.834C462.437 963.64 462.557 963.416 462.63 963.174L465.028 955.182L465.231 954.504C465.291 954.339 465.406 954.199 465.558 954.11C465.71 954.021 465.888 953.989 466.062 954.018C466.235 954.047 466.393 954.137 466.507 954.27C466.622 954.404 466.685 954.574 466.687 954.75C466.687 954.801 466.682 954.851 466.671 954.901L462.571 968.569C462.504 968.793 462.49 969.029 462.531 969.26C462.571 969.49 462.665 969.707 462.804 969.895C462.944 970.083 463.125 970.235 463.334 970.34C463.543 970.445 463.774 970.5 464.008 970.5H466.726V981.252C466.726 982.795 467.714 984 468.976 984C470.239 984 471.226 982.795 471.226 981.252V970.5H472.726V981.252C472.726 982.795 473.714 984 474.976 984C476.239 984 477.226 982.795 477.226 981.252V970.5H480.039C480.273 970.5 480.504 970.445 480.713 970.34C480.922 970.236 481.103 970.083 481.243 969.895C481.382 969.708 481.476 969.49 481.517 969.26C481.557 969.029 481.543 968.793 481.476 968.569L477.376 954.899C477.365 954.85 477.36 954.8 477.361 954.75C477.361 954.573 477.425 954.403 477.539 954.268C477.653 954.134 477.811 954.044 477.985 954.015C478.159 953.985 478.338 954.018 478.49 954.107C478.643 954.197 478.758 954.337 478.817 954.503L479.021 955.181L481.418 963.173C481.491 963.414 481.611 963.638 481.772 963.832C481.934 964.025 482.132 964.184 482.356 964.299C482.58 964.414 482.825 964.483 483.076 964.501C483.327 964.52 483.579 964.487 483.817 964.406C484.78 964.084 485.288 963.027 484.996 962.053Z" fill="white"/>
</g>
</g>
<g data-room="В-78__Г-102-1">
<rect x="368" y="896" width="64" height="128" rx="12" fill="#2563EB"/>
<path  d="M411 1010.12V1014.86H388.453V1000.33H392.359V1010.12H411ZM403.828 988.531V998.797H399.844V988.531H403.828ZM411 980.062H392.781V980.156L396.75 985.906H392.5L388.453 980.078V975.391H411V980.062ZM408.328 954.828C410.443 956.443 411.5 958.667 411.5 961.5C411.5 964.333 410.448 966.562 408.344 968.188C406.229 969.812 403.344 970.625 399.688 970.625C396.052 970.625 393.188 969.812 391.094 968.188C388.99 966.552 387.938 964.323 387.938 961.5C387.938 958.677 388.984 956.453 391.078 954.828C393.172 953.203 396.036 952.391 399.672 952.391C403.318 952.391 406.203 953.203 408.328 954.828ZM405.609 964.688C407.016 963.917 407.719 962.854 407.719 961.5C407.719 960.146 407.021 959.089 405.625 958.328C404.219 957.568 402.24 957.188 399.688 957.188C397.156 957.188 395.198 957.573 393.812 958.344C392.417 959.104 391.719 960.156 391.719 961.5C391.719 962.844 392.417 963.901 393.812 964.672C395.208 965.443 397.167 965.828 399.688 965.828C402.229 965.828 404.203 965.448 405.609 964.688ZM395.234 949.906C393.099 949.906 391.354 949.135 390 947.594C388.635 946.042 387.953 944.036 387.953 941.578C387.953 939.214 388.568 937.286 389.797 935.797C391.016 934.307 392.573 933.562 394.469 933.562C395.146 933.562 395.802 933.667 396.438 933.875C397.062 934.073 397.693 934.396 398.328 934.844C398.953 935.281 399.521 935.724 400.031 936.172C400.531 936.62 401.141 937.203 401.859 937.922L407.156 943.422H407.25V933.25H411V949.641H407.828L399.641 941.141C398.495 939.995 397.573 939.214 396.875 938.797C396.177 938.37 395.438 938.156 394.656 938.156C393.802 938.156 393.083 938.495 392.5 939.172C391.917 939.849 391.625 940.703 391.625 941.734C391.625 942.828 391.969 943.734 392.656 944.453C393.333 945.172 394.193 945.531 395.234 945.531H395.312V949.906H395.234ZM403.828 919.719V929.984H399.844V919.719H403.828ZM411 911.25H392.781V911.344L396.75 917.094H392.5L388.453 911.266V906.578H411V911.25Z" fill="white"/>
</g>
<g data-room="В-78__Г-112">
<rect x="480" width="140" height="268" rx="12" fill="#2563EB"/>
<path  d="M561 167.062V171.797H538.453V157.266H542.359V167.062H561ZM553.828 145.469V155.734H549.844V145.469H553.828ZM561 137H542.781V137.094L546.75 142.844H542.5L538.453 137.016V132.328H561V137ZM561 121.625H542.781V121.719L546.75 127.469H542.5L538.453 121.641V116.953H561V121.625ZM545.234 112.156C543.099 112.156 541.354 111.385 540 109.844C538.635 108.292 537.953 106.286 537.953 103.828C537.953 101.464 538.568 99.5365 539.797 98.0469C541.016 96.5573 542.573 95.8125 544.469 95.8125C545.146 95.8125 545.802 95.9167 546.438 96.125C547.062 96.3229 547.693 96.6458 548.328 97.0938C548.953 97.5312 549.521 97.974 550.031 98.4219C550.531 98.8698 551.141 99.4531 551.859 100.172L557.156 105.672H557.25V95.5H561V111.891H557.828L549.641 103.391C548.495 102.245 547.573 101.464 546.875 101.047C546.177 100.62 545.438 100.406 544.656 100.406C543.802 100.406 543.083 100.745 542.5 101.422C541.917 102.099 541.625 102.953 541.625 103.984C541.625 105.078 541.969 105.984 542.656 106.703C543.333 107.422 544.193 107.781 545.234 107.781H545.312V112.156H545.234Z" fill="white"/>
</g>
<g data-room="В-78__Г-103">
<rect x="232" y="896" width="128" height="128" rx="12" fill="#2563EB"/>
<path  d="M259.781 971H255.047V948.453H269.578V952.359H259.781V971ZM281.375 963.828H271.109V959.844H281.375V963.828ZM289.844 971V952.781H289.75L284 956.75V952.5L289.828 948.453H294.516V971H289.844ZM315.078 968.328C313.464 970.443 311.24 971.5 308.406 971.5C305.573 971.5 303.344 970.448 301.719 968.344C300.094 966.229 299.281 963.344 299.281 959.688C299.281 956.052 300.094 953.188 301.719 951.094C303.354 948.99 305.583 947.938 308.406 947.938C311.229 947.938 313.453 948.984 315.078 951.078C316.703 953.172 317.516 956.036 317.516 959.672C317.516 963.318 316.703 966.203 315.078 968.328ZM305.219 965.609C305.99 967.016 307.052 967.719 308.406 967.719C309.76 967.719 310.818 967.021 311.578 965.625C312.339 964.219 312.719 962.24 312.719 959.688C312.719 957.156 312.333 955.198 311.562 953.812C310.802 952.417 309.75 951.719 308.406 951.719C307.062 951.719 306.005 952.417 305.234 953.812C304.464 955.208 304.078 957.167 304.078 959.688C304.078 962.229 304.458 964.203 305.219 965.609ZM325.906 961.156V957.75H328.641C329.714 957.75 330.583 957.458 331.25 956.875C331.917 956.292 332.25 955.536 332.25 954.609C332.25 953.682 331.932 952.948 331.297 952.406C330.661 951.854 329.766 951.578 328.609 951.578C327.516 951.578 326.63 951.875 325.953 952.469C325.276 953.062 324.906 953.854 324.844 954.844H320.5C320.583 952.75 321.38 951.078 322.891 949.828C324.401 948.578 326.375 947.953 328.812 947.953C331.167 947.953 333.068 948.505 334.516 949.609C335.974 950.714 336.703 952.167 336.703 953.969C336.703 955.333 336.276 956.49 335.422 957.438C334.568 958.385 333.443 958.984 332.047 959.234V959.328C333.745 959.474 335.089 960.031 336.078 961C337.078 961.958 337.578 963.214 337.578 964.766C337.578 966.776 336.75 968.401 335.094 969.641C333.448 970.88 331.318 971.5 328.703 971.5C326.172 971.5 324.125 970.865 322.562 969.594C321.01 968.323 320.177 966.641 320.062 964.547H324.578C324.651 965.505 325.057 966.271 325.797 966.844C326.547 967.417 327.536 967.703 328.766 967.703C329.943 967.703 330.906 967.401 331.656 966.797C332.406 966.193 332.781 965.417 332.781 964.469C332.781 963.438 332.417 962.63 331.688 962.047C330.958 961.453 329.958 961.156 328.688 961.156H325.906Z" fill="white"/>
</g>
<g data-room="В-78__Г-101">
<rect x="360" y="688" width="144" height="128" rx="12" fill="#2563EB"/>
<path  d="M398.25 763H393.516V740.453H408.047V744.359H398.25V763ZM419.844 755.828H409.578V751.844H419.844V755.828ZM428.312 763V744.781H428.219L422.469 748.75V744.5L428.297 740.453H432.984V763H428.312ZM453.547 760.328C451.932 762.443 449.708 763.5 446.875 763.5C444.042 763.5 441.812 762.448 440.188 760.344C438.562 758.229 437.75 755.344 437.75 751.688C437.75 748.052 438.562 745.188 440.188 743.094C441.823 740.99 444.052 739.938 446.875 739.938C449.698 739.938 451.922 740.984 453.547 743.078C455.172 745.172 455.984 748.036 455.984 751.672C455.984 755.318 455.172 758.203 453.547 760.328ZM443.688 757.609C444.458 759.016 445.521 759.719 446.875 759.719C448.229 759.719 449.286 759.021 450.047 757.625C450.807 756.219 451.188 754.24 451.188 751.688C451.188 749.156 450.802 747.198 450.031 745.812C449.271 744.417 448.219 743.719 446.875 743.719C445.531 743.719 444.474 744.417 443.703 745.812C442.932 747.208 442.547 749.167 442.547 751.688C442.547 754.229 442.927 756.203 443.688 757.609ZM464.375 763V744.781H464.281L458.531 748.75V744.5L464.359 740.453H469.047V763H464.375Z" fill="white"/>
</g>
<g data-room="В-78__B-320">
<rect x="208" y="687" width="144" height="128" rx="12" fill="#2563EB"/>
<path  d="M244.438 762H234.453V739.453H244.266C246.38 739.453 248.057 739.958 249.297 740.969C250.536 741.979 251.156 743.349 251.156 745.078C251.156 746.307 250.75 747.385 249.938 748.312C249.135 749.24 248.13 749.792 246.922 749.969V750.094C248.464 750.208 249.734 750.776 250.734 751.797C251.734 752.818 252.234 754.068 252.234 755.547C252.234 757.536 251.536 759.109 250.141 760.266C248.745 761.422 246.844 762 244.438 762ZM239.172 742.969V748.828H242.562C243.823 748.828 244.797 748.568 245.484 748.047C246.172 747.516 246.516 746.771 246.516 745.812C246.516 744.906 246.214 744.208 245.609 743.719C245.005 743.219 244.151 742.969 243.047 742.969H239.172ZM239.172 758.484H243.234C244.599 758.484 245.635 758.203 246.344 757.641C247.062 757.068 247.422 756.245 247.422 755.172C247.422 754.12 247.052 753.318 246.312 752.766C245.583 752.214 244.521 751.938 243.125 751.938H239.172V758.484ZM265.25 754.828H254.984V750.844H265.25V754.828ZM274.281 752.156V748.75H277.016C278.089 748.75 278.958 748.458 279.625 747.875C280.292 747.292 280.625 746.536 280.625 745.609C280.625 744.682 280.307 743.948 279.672 743.406C279.036 742.854 278.141 742.578 276.984 742.578C275.891 742.578 275.005 742.875 274.328 743.469C273.651 744.062 273.281 744.854 273.219 745.844H268.875C268.958 743.75 269.755 742.078 271.266 740.828C272.776 739.578 274.75 738.953 277.188 738.953C279.542 738.953 281.443 739.505 282.891 740.609C284.349 741.714 285.078 743.167 285.078 744.969C285.078 746.333 284.651 747.49 283.797 748.438C282.943 749.385 281.818 749.984 280.422 750.234V750.328C282.12 750.474 283.464 751.031 284.453 752C285.453 752.958 285.953 754.214 285.953 755.766C285.953 757.776 285.125 759.401 283.469 760.641C281.823 761.88 279.693 762.5 277.078 762.5C274.547 762.5 272.5 761.865 270.938 760.594C269.385 759.323 268.552 757.641 268.438 755.547H272.953C273.026 756.505 273.432 757.271 274.172 757.844C274.922 758.417 275.911 758.703 277.141 758.703C278.318 758.703 279.281 758.401 280.031 757.797C280.781 757.193 281.156 756.417 281.156 755.469C281.156 754.438 280.792 753.63 280.062 753.047C279.333 752.453 278.333 752.156 277.062 752.156H274.281ZM288.688 746.234C288.688 744.099 289.458 742.354 291 741C292.552 739.635 294.557 738.953 297.016 738.953C299.38 738.953 301.307 739.568 302.797 740.797C304.286 742.016 305.031 743.573 305.031 745.469C305.031 746.146 304.927 746.802 304.719 747.438C304.521 748.062 304.198 748.693 303.75 749.328C303.312 749.953 302.87 750.521 302.422 751.031C301.974 751.531 301.391 752.141 300.672 752.859L295.172 758.156V758.25H305.344V762H288.953V758.828L297.453 750.641C298.599 749.495 299.38 748.573 299.797 747.875C300.224 747.177 300.438 746.438 300.438 745.656C300.438 744.802 300.099 744.083 299.422 743.5C298.745 742.917 297.891 742.625 296.859 742.625C295.766 742.625 294.859 742.969 294.141 743.656C293.422 744.333 293.062 745.193 293.062 746.234V746.312H288.688V746.234ZM323.672 759.328C322.057 761.443 319.833 762.5 317 762.5C314.167 762.5 311.938 761.448 310.312 759.344C308.688 757.229 307.875 754.344 307.875 750.688C307.875 747.052 308.688 744.188 310.312 742.094C311.948 739.99 314.177 738.938 317 738.938C319.823 738.938 322.047 739.984 323.672 742.078C325.297 744.172 326.109 747.036 326.109 750.672C326.109 754.318 325.297 757.203 323.672 759.328ZM313.812 756.609C314.583 758.016 315.646 758.719 317 758.719C318.354 758.719 319.411 758.021 320.172 756.625C320.932 755.219 321.312 753.24 321.312 750.688C321.312 748.156 320.927 746.198 320.156 744.812C319.396 743.417 318.344 742.719 317 742.719C315.656 742.719 314.599 743.417 313.828 744.812C313.057 746.208 312.672 748.167 312.672 750.688C312.672 753.229 313.052 755.203 313.812 756.609Z" fill="white"/>
</g>
<g data-room="В-78__Г-102">
<rect x="208" y="688" width="144" height="128" rx="12" fill="#2563EB"/>
<path  d="M244.281 763H239.547V740.453H254.078V744.359H244.281V763ZM265.875 755.828H255.609V751.844H265.875V755.828ZM274.344 763V744.781H274.25L268.5 748.75V744.5L274.328 740.453H279.016V763H274.344ZM299.578 760.328C297.964 762.443 295.74 763.5 292.906 763.5C290.073 763.5 287.844 762.448 286.219 760.344C284.594 758.229 283.781 755.344 283.781 751.688C283.781 748.052 284.594 745.188 286.219 743.094C287.854 740.99 290.083 739.938 292.906 739.938C295.729 739.938 297.953 740.984 299.578 743.078C301.203 745.172 302.016 748.036 302.016 751.672C302.016 755.318 301.203 758.203 299.578 760.328ZM289.719 757.609C290.49 759.016 291.552 759.719 292.906 759.719C294.26 759.719 295.318 759.021 296.078 757.625C296.839 756.219 297.219 754.24 297.219 751.688C297.219 749.156 296.833 747.198 296.062 745.812C295.302 744.417 294.25 743.719 292.906 743.719C291.562 743.719 290.505 744.417 289.734 745.812C288.964 747.208 288.578 749.167 288.578 751.688C288.578 754.229 288.958 756.203 289.719 757.609ZM304.5 747.234C304.5 745.099 305.271 743.354 306.812 742C308.365 740.635 310.37 739.953 312.828 739.953C315.193 739.953 317.12 740.568 318.609 741.797C320.099 743.016 320.844 744.573 320.844 746.469C320.844 747.146 320.74 747.802 320.531 748.438C320.333 749.062 320.01 749.693 319.562 750.328C319.125 750.953 318.682 751.521 318.234 752.031C317.786 752.531 317.203 753.141 316.484 753.859L310.984 759.156V759.25H321.156V763H304.766V759.828L313.266 751.641C314.411 750.495 315.193 749.573 315.609 748.875C316.036 748.177 316.25 747.438 316.25 746.656C316.25 745.802 315.911 745.083 315.234 744.5C314.557 743.917 313.703 743.625 312.672 743.625C311.578 743.625 310.672 743.969 309.953 744.656C309.234 745.333 308.875 746.193 308.875 747.234V747.312H304.5V747.234Z" fill="white"/>
</g>
<g data-room="В-78__Г-104">
<rect x="96" y="896" width="128" height="128" rx="12" fill="#2563EB"/>
<path  d="M123.484 971H118.75V948.453H133.281V952.359H123.484V971ZM145.078 963.828H134.812V959.844H145.078V963.828ZM153.547 971V952.781H153.453L147.703 956.75V952.5L153.531 948.453H158.219V971H153.547ZM178.781 968.328C177.167 970.443 174.943 971.5 172.109 971.5C169.276 971.5 167.047 970.448 165.422 968.344C163.797 966.229 162.984 963.344 162.984 959.688C162.984 956.052 163.797 953.188 165.422 951.094C167.057 948.99 169.286 947.938 172.109 947.938C174.932 947.938 177.156 948.984 178.781 951.078C180.406 953.172 181.219 956.036 181.219 959.672C181.219 963.318 180.406 966.203 178.781 968.328ZM168.922 965.609C169.693 967.016 170.755 967.719 172.109 967.719C173.464 967.719 174.521 967.021 175.281 965.625C176.042 964.219 176.422 962.24 176.422 959.688C176.422 957.156 176.036 955.198 175.266 953.812C174.505 952.417 173.453 951.719 172.109 951.719C170.766 951.719 169.708 952.417 168.938 953.812C168.167 955.208 167.781 957.167 167.781 959.688C167.781 962.229 168.161 964.203 168.922 965.609ZM194.875 971V966.984H183.656V962.969C185.49 959.469 188.505 954.63 192.703 948.453H199.359V963.203H202.297V966.984H199.359V971H194.875ZM187.797 963.219V963.344H194.969V951.797H194.875C193.135 954.339 191.74 956.458 190.688 958.156C189.635 959.844 188.672 961.531 187.797 963.219Z" fill="white"/>
</g>
<g data-room="В-78__Г-110-а">
<rect x="208" width="128" height="128" rx="12" fill="#2563EB"/>
<path  d="M222.188 75H217.453V52.4531H231.984V56.3594H222.188V75ZM243.781 67.8281H233.516V63.8438H243.781V67.8281ZM252.25 75V56.7812H252.156L246.406 60.75V56.5L252.234 52.4531H256.922V75H252.25ZM267.625 75V56.7812H267.531L261.781 60.75V56.5L267.609 52.4531H272.297V75H267.625ZM292.859 72.3281C291.245 74.4427 289.021 75.5 286.188 75.5C283.354 75.5 281.125 74.4479 279.5 72.3438C277.875 70.2292 277.062 67.3438 277.062 63.6875C277.062 60.0521 277.875 57.1875 279.5 55.0938C281.135 52.9896 283.365 51.9375 286.188 51.9375C289.01 51.9375 291.234 52.9844 292.859 55.0781C294.484 57.1719 295.297 60.0365 295.297 63.6719C295.297 67.3177 294.484 70.2031 292.859 72.3281ZM283 69.6094C283.771 71.0156 284.833 71.7188 286.188 71.7188C287.542 71.7188 288.599 71.0208 289.359 69.625C290.12 68.2188 290.5 66.2396 290.5 63.6875C290.5 61.1562 290.115 59.1979 289.344 57.8125C288.583 56.4167 287.531 55.7188 286.188 55.7188C284.844 55.7188 283.786 56.4167 283.016 57.8125C282.245 59.2083 281.859 61.1667 281.859 63.6875C281.859 66.2292 282.24 68.2031 283 69.6094ZM308.812 67.8281H298.547V63.8438H308.812V67.8281ZM318.875 71.9688C319.885 71.9688 320.74 71.6771 321.438 71.0938C322.146 70.5 322.5 69.7552 322.5 68.8594V67.6406L318.969 67.8594C318.115 67.9219 317.453 68.1354 316.984 68.5C316.526 68.8646 316.297 69.3438 316.297 69.9375C316.297 70.5625 316.531 71.0573 317 71.4219C317.469 71.7865 318.094 71.9688 318.875 71.9688ZM317.375 75.2656C315.76 75.2656 314.422 74.7917 313.359 73.8438C312.297 72.8958 311.766 71.6771 311.766 70.1875C311.766 68.6667 312.328 67.474 313.453 66.6094C314.578 65.7448 316.188 65.25 318.281 65.125L322.5 64.875V63.7656C322.5 62.9948 322.245 62.3906 321.734 61.9531C321.234 61.5156 320.552 61.2969 319.688 61.2969C318.854 61.2969 318.172 61.4844 317.641 61.8594C317.12 62.2344 316.802 62.7396 316.688 63.375H312.516C312.599 61.7292 313.302 60.4062 314.625 59.4062C315.948 58.3958 317.703 57.8906 319.891 57.8906C322.036 57.8906 323.755 58.401 325.047 59.4219C326.339 60.4427 326.984 61.7969 326.984 63.4844V75H322.578V72.4375H322.484C322.026 73.3125 321.328 74.0052 320.391 74.5156C319.453 75.0156 318.448 75.2656 317.375 75.2656Z" fill="white"/>
</g>
<g data-room="В-78__Г-111-а">
<rect x="344" width="128" height="128" rx="12" fill="#2563EB"/>
<path  d="M360.922 75H356.188V52.4531H370.719V56.3594H360.922V75ZM382.516 67.8281H372.25V63.8438H382.516V67.8281ZM390.984 75V56.7812H390.891L385.141 60.75V56.5L390.969 52.4531H395.656V75H390.984ZM406.359 75V56.7812H406.266L400.516 60.75V56.5L406.344 52.4531H411.031V75H406.359ZM421.734 75V56.7812H421.641L415.891 60.75V56.5L421.719 52.4531H426.406V75H421.734ZM442.078 67.8281H431.812V63.8438H442.078V67.8281ZM452.141 71.9688C453.151 71.9688 454.005 71.6771 454.703 71.0938C455.411 70.5 455.766 69.7552 455.766 68.8594V67.6406L452.234 67.8594C451.38 67.9219 450.719 68.1354 450.25 68.5C449.792 68.8646 449.562 69.3438 449.562 69.9375C449.562 70.5625 449.797 71.0573 450.266 71.4219C450.734 71.7865 451.359 71.9688 452.141 71.9688ZM450.641 75.2656C449.026 75.2656 447.688 74.7917 446.625 73.8438C445.562 72.8958 445.031 71.6771 445.031 70.1875C445.031 68.6667 445.594 67.474 446.719 66.6094C447.844 65.7448 449.453 65.25 451.547 65.125L455.766 64.875V63.7656C455.766 62.9948 455.51 62.3906 455 61.9531C454.5 61.5156 453.818 61.2969 452.953 61.2969C452.12 61.2969 451.438 61.4844 450.906 61.8594C450.385 62.2344 450.068 62.7396 449.953 63.375H445.781C445.865 61.7292 446.568 60.4062 447.891 59.4062C449.214 58.3958 450.969 57.8906 453.156 57.8906C455.302 57.8906 457.021 58.401 458.312 59.4219C459.604 60.4427 460.25 61.7969 460.25 63.4844V75H455.844V72.4375H455.75C455.292 73.3125 454.594 74.0052 453.656 74.5156C452.719 75.0156 451.714 75.2656 450.641 75.2656Z" fill="white"/>
</g>
<g data-room="В-78__Г-106-1">
<rect y="584" width="128" height="112" rx="12" fill="#2563EB"/>
<path  d="M13.1562 651H8.42188V628.453H22.9531V632.359H13.1562V651ZM34.75 643.828H24.4844V639.844H34.75V643.828ZM43.2188 651V632.781H43.125L37.375 636.75V632.5L43.2031 628.453H47.8906V651H43.2188ZM68.4531 648.328C66.8385 650.443 64.6146 651.5 61.7812 651.5C58.9479 651.5 56.7188 650.448 55.0938 648.344C53.4688 646.229 52.6562 643.344 52.6562 639.688C52.6562 636.052 53.4688 633.188 55.0938 631.094C56.7292 628.99 58.9583 627.938 61.7812 627.938C64.6042 627.938 66.8281 628.984 68.4531 631.078C70.0781 633.172 70.8906 636.036 70.8906 639.672C70.8906 643.318 70.0781 646.203 68.4531 648.328ZM58.5938 645.609C59.3646 647.016 60.4271 647.719 61.7812 647.719C63.1354 647.719 64.1927 647.021 64.9531 645.625C65.7135 644.219 66.0938 642.24 66.0938 639.688C66.0938 637.156 65.7083 635.198 64.9375 633.812C64.1771 632.417 63.125 631.719 61.7812 631.719C60.4375 631.719 59.3802 632.417 58.6094 633.812C57.8385 635.208 57.4531 637.167 57.4531 639.688C57.4531 642.229 57.8333 644.203 58.5938 645.609ZM82.8906 651.516C81.2656 651.516 79.8073 651.161 78.5156 650.453C77.2344 649.734 76.1979 648.703 75.4062 647.359C74.1458 645.432 73.5156 642.948 73.5156 639.906C73.5156 636.188 74.3594 633.266 76.0469 631.141C77.7344 629.005 80.0417 627.938 82.9688 627.938C85.1146 627.938 86.9531 628.516 88.4844 629.672C90.0156 630.828 90.9375 632.328 91.25 634.172H86.6094C86.3802 633.422 85.9323 632.818 85.2656 632.359C84.599 631.901 83.8229 631.672 82.9375 631.672C81.3542 631.672 80.1198 632.391 79.2344 633.828C78.3594 635.266 77.9479 637.25 78 639.781H78.0938C78.5521 638.667 79.3125 637.776 80.375 637.109C81.4375 636.443 82.6771 636.109 84.0938 636.109C86.2396 636.109 88.0156 636.818 89.4219 638.234C90.8385 639.641 91.5469 641.411 91.5469 643.547C91.5469 645.87 90.7344 647.781 89.1094 649.281C87.4844 650.771 85.4115 651.516 82.8906 651.516ZM82.8438 647.75C83.9896 647.75 84.9583 647.359 85.75 646.578C86.5521 645.786 86.9531 644.823 86.9531 643.688C86.9531 642.521 86.5625 641.557 85.7812 640.797C85.0104 640.036 84.0365 639.656 82.8594 639.656C81.6823 639.656 80.6979 640.036 79.9062 640.797C79.125 641.557 78.7344 642.505 78.7344 643.641C78.7344 644.786 79.1302 645.76 79.9219 646.562C80.7135 647.354 81.6875 647.75 82.8438 647.75ZM105 643.828H94.7344V639.844H105V643.828ZM113.469 651V632.781H113.375L107.625 636.75V632.5L113.453 628.453H118.141V651H113.469Z" fill="white"/>
</g>
<g data-room="В-78__Г-108">
<rect y="328" width="128" height="112" rx="12" fill="#2563EB"/>
<path  d="M27.4219 395H22.6875V372.453H37.2188V376.359H27.4219V395ZM49.0156 387.828H38.75V383.844H49.0156V387.828ZM57.4844 395V376.781H57.3906L51.6406 380.75V376.5L57.4688 372.453H62.1562V395H57.4844ZM82.7188 392.328C81.1042 394.443 78.8802 395.5 76.0469 395.5C73.2135 395.5 70.9844 394.448 69.3594 392.344C67.7344 390.229 66.9219 387.344 66.9219 383.688C66.9219 380.052 67.7344 377.188 69.3594 375.094C70.9948 372.99 73.224 371.938 76.0469 371.938C78.8698 371.938 81.0938 372.984 82.7188 375.078C84.3438 377.172 85.1562 380.036 85.1562 383.672C85.1562 387.318 84.3438 390.203 82.7188 392.328ZM72.8594 389.609C73.6302 391.016 74.6927 391.719 76.0469 391.719C77.401 391.719 78.4583 391.021 79.2188 389.625C79.9792 388.219 80.3594 386.24 80.3594 383.688C80.3594 381.156 79.974 379.198 79.2031 377.812C78.4427 376.417 77.3906 375.719 76.0469 375.719C74.7031 375.719 73.6458 376.417 72.875 377.812C72.1042 379.208 71.7188 381.167 71.7188 383.688C71.7188 386.229 72.099 388.203 72.8594 389.609ZM96.9062 395.5C94.1771 395.5 91.9688 394.891 90.2812 393.672C88.6042 392.443 87.7656 390.849 87.7656 388.891C87.7656 387.411 88.2552 386.146 89.2344 385.094C90.2135 384.031 91.4896 383.37 93.0625 383.109V383.016C91.75 382.714 90.6875 382.099 89.875 381.172C89.0729 380.234 88.6719 379.146 88.6719 377.906C88.6719 376.177 89.4427 374.755 90.9844 373.641C92.526 372.516 94.5 371.953 96.9062 371.953C99.3229 371.953 101.297 372.516 102.828 373.641C104.359 374.755 105.125 376.182 105.125 377.922C105.125 379.141 104.724 380.219 103.922 381.156C103.12 382.083 102.062 382.703 100.75 383.016V383.109C102.333 383.38 103.609 384.047 104.578 385.109C105.557 386.161 106.047 387.427 106.047 388.906C106.047 390.865 105.198 392.453 103.5 393.672C101.812 394.891 99.6146 395.5 96.9062 395.5ZM93.8594 391.078C94.651 391.734 95.6667 392.062 96.9062 392.062C98.1458 392.062 99.1562 391.734 99.9375 391.078C100.719 390.411 101.109 389.568 101.109 388.547C101.109 387.526 100.719 386.688 99.9375 386.031C99.1562 385.365 98.1458 385.031 96.9062 385.031C95.6667 385.031 94.651 385.365 93.8594 386.031C93.0781 386.688 92.6875 387.526 92.6875 388.547C92.6875 389.568 93.0781 390.411 93.8594 391.078ZM94.3438 380.719C95.0104 381.302 95.8646 381.594 96.9062 381.594C97.9479 381.594 98.8021 381.302 99.4688 380.719C100.135 380.125 100.469 379.38 100.469 378.484C100.469 377.578 100.135 376.833 99.4688 376.25C98.8021 375.656 97.9479 375.359 96.9062 375.359C95.8646 375.359 95.0104 375.656 94.3438 376.25C93.6771 376.833 93.3438 377.578 93.3438 378.484C93.3438 379.391 93.6771 380.135 94.3438 380.719Z" fill="white"/>
</g>
<g data-room="В-78__Г-109-а">
<rect y="136" width="128" height="112" rx="12" fill="#2563EB"/>
<path  d="M11.5469 203H6.8125V180.453H21.3438V184.359H11.5469V203ZM33.1406 195.828H22.875V191.844H33.1406V195.828ZM41.6094 203V184.781H41.5156L35.7656 188.75V184.5L41.5938 180.453H46.2812V203H41.6094ZM66.8438 200.328C65.2292 202.443 63.0052 203.5 60.1719 203.5C57.3385 203.5 55.1094 202.448 53.4844 200.344C51.8594 198.229 51.0469 195.344 51.0469 191.688C51.0469 188.052 51.8594 185.188 53.4844 183.094C55.1198 180.99 57.349 179.938 60.1719 179.938C62.9948 179.938 65.2188 180.984 66.8438 183.078C68.4688 185.172 69.2812 188.036 69.2812 191.672C69.2812 195.318 68.4688 198.203 66.8438 200.328ZM56.9844 197.609C57.7552 199.016 58.8177 199.719 60.1719 199.719C61.526 199.719 62.5833 199.021 63.3438 197.625C64.1042 196.219 64.4844 194.24 64.4844 191.688C64.4844 189.156 64.099 187.198 63.3281 185.812C62.5677 184.417 61.5156 183.719 60.1719 183.719C58.8281 183.719 57.7708 184.417 57 185.812C56.2292 187.208 55.8438 189.167 55.8438 191.688C55.8438 194.229 56.224 196.203 56.9844 197.609ZM80.4531 203.5C78.2969 203.5 76.4479 202.922 74.9062 201.766C73.3646 200.599 72.4375 199.094 72.125 197.25H76.7812C77.0104 198.01 77.4635 198.62 78.1406 199.078C78.8281 199.536 79.625 199.766 80.5312 199.766C82.1042 199.766 83.3229 199.052 84.1875 197.625C85.0625 196.198 85.4688 194.203 85.4062 191.641H85.3594H85.3281H85.3125C84.8958 192.766 84.1562 193.661 83.0938 194.328C82.0312 194.995 80.7708 195.328 79.3125 195.328C77.1771 195.328 75.3958 194.625 73.9688 193.219C72.5417 191.802 71.8281 190.026 71.8281 187.891C71.8281 185.578 72.6458 183.677 74.2812 182.188C75.9167 180.688 77.9948 179.938 80.5156 179.938C82.151 179.938 83.6146 180.292 84.9062 181C86.2083 181.708 87.25 182.729 88.0312 184.062C89.2917 186 89.9219 188.49 89.9219 191.531C89.9219 195.271 89.0833 198.203 87.4062 200.328C85.7396 202.443 83.4219 203.5 80.4531 203.5ZM77.6094 190.641C78.3906 191.401 79.3698 191.781 80.5469 191.781C81.724 191.781 82.7031 191.401 83.4844 190.641C84.276 189.87 84.6719 188.917 84.6719 187.781C84.6719 186.635 84.276 185.672 83.4844 184.891C82.6927 184.099 81.724 183.703 80.5781 183.703C79.4219 183.703 78.4427 184.094 77.6406 184.875C76.8385 185.656 76.4375 186.615 76.4375 187.75C76.4375 188.906 76.8281 189.87 77.6094 190.641ZM103.453 195.828H93.1875V191.844H103.453V195.828ZM113.516 199.969C114.526 199.969 115.38 199.677 116.078 199.094C116.786 198.5 117.141 197.755 117.141 196.859V195.641L113.609 195.859C112.755 195.922 112.094 196.135 111.625 196.5C111.167 196.865 110.938 197.344 110.938 197.938C110.938 198.562 111.172 199.057 111.641 199.422C112.109 199.786 112.734 199.969 113.516 199.969ZM112.016 203.266C110.401 203.266 109.062 202.792 108 201.844C106.938 200.896 106.406 199.677 106.406 198.188C106.406 196.667 106.969 195.474 108.094 194.609C109.219 193.745 110.828 193.25 112.922 193.125L117.141 192.875V191.766C117.141 190.995 116.885 190.391 116.375 189.953C115.875 189.516 115.193 189.297 114.328 189.297C113.495 189.297 112.812 189.484 112.281 189.859C111.76 190.234 111.443 190.74 111.328 191.375H107.156C107.24 189.729 107.943 188.406 109.266 187.406C110.589 186.396 112.344 185.891 114.531 185.891C116.677 185.891 118.396 186.401 119.688 187.422C120.979 188.443 121.625 189.797 121.625 191.484V203H117.219V200.438H117.125C116.667 201.312 115.969 202.005 115.031 202.516C114.094 203.016 113.089 203.266 112.016 203.266Z" fill="white"/>
</g>
<g data-room="В-78__Г-109-б">
<rect width="200" height="128" rx="12" fill="#2563EB"/>
<path  d="M47 75H42.2656V52.4531H56.7969V56.3594H47V75ZM68.5938 67.8281H58.3281V63.8438H68.5938V67.8281ZM77.0625 75V56.7812H76.9688L71.2188 60.75V56.5L77.0469 52.4531H81.7344V75H77.0625ZM102.297 72.3281C100.682 74.4427 98.4583 75.5 95.625 75.5C92.7917 75.5 90.5625 74.4479 88.9375 72.3438C87.3125 70.2292 86.5 67.3438 86.5 63.6875C86.5 60.0521 87.3125 57.1875 88.9375 55.0938C90.5729 52.9896 92.8021 51.9375 95.625 51.9375C98.4479 51.9375 100.672 52.9844 102.297 55.0781C103.922 57.1719 104.734 60.0365 104.734 63.6719C104.734 67.3177 103.922 70.2031 102.297 72.3281ZM92.4375 69.6094C93.2083 71.0156 94.2708 71.7188 95.625 71.7188C96.9792 71.7188 98.0365 71.0208 98.7969 69.625C99.5573 68.2188 99.9375 66.2396 99.9375 63.6875C99.9375 61.1562 99.5521 59.1979 98.7812 57.8125C98.0208 56.4167 96.9688 55.7188 95.625 55.7188C94.2812 55.7188 93.224 56.4167 92.4531 57.8125C91.6823 59.2083 91.2969 61.1667 91.2969 63.6875C91.2969 66.2292 91.6771 68.2031 92.4375 69.6094ZM115.906 75.5C113.75 75.5 111.901 74.9219 110.359 73.7656C108.818 72.599 107.891 71.0938 107.578 69.25H112.234C112.464 70.0104 112.917 70.6198 113.594 71.0781C114.281 71.5365 115.078 71.7656 115.984 71.7656C117.557 71.7656 118.776 71.0521 119.641 69.625C120.516 68.1979 120.922 66.2031 120.859 63.6406H120.812H120.781H120.766C120.349 64.7656 119.609 65.6615 118.547 66.3281C117.484 66.9948 116.224 67.3281 114.766 67.3281C112.63 67.3281 110.849 66.625 109.422 65.2188C107.995 63.8021 107.281 62.026 107.281 59.8906C107.281 57.5781 108.099 55.6771 109.734 54.1875C111.37 52.6875 113.448 51.9375 115.969 51.9375C117.604 51.9375 119.068 52.2917 120.359 53C121.661 53.7083 122.703 54.7292 123.484 56.0625C124.745 58 125.375 60.4896 125.375 63.5312C125.375 67.2708 124.536 70.2031 122.859 72.3281C121.193 74.4427 118.875 75.5 115.906 75.5ZM113.062 62.6406C113.844 63.401 114.823 63.7812 116 63.7812C117.177 63.7812 118.156 63.401 118.938 62.6406C119.729 61.8698 120.125 60.9167 120.125 59.7812C120.125 58.6354 119.729 57.6719 118.938 56.8906C118.146 56.099 117.177 55.7031 116.031 55.7031C114.875 55.7031 113.896 56.0938 113.094 56.875C112.292 57.6562 111.891 58.6146 111.891 59.75C111.891 60.9062 112.281 61.8698 113.062 62.6406ZM138.906 67.8281H128.641V63.8438H138.906V67.8281ZM150.453 75.3594C147.734 75.3594 145.641 74.5156 144.172 72.8281C142.714 71.1302 141.984 68.6562 141.984 65.4062C141.984 62.3021 142.339 59.776 143.047 57.8281C143.766 55.8802 144.797 54.4635 146.141 53.5781C147.484 52.6927 149.198 52.2188 151.281 52.1562L153.234 52.1094C154.214 52.0781 155.125 51.9896 155.969 51.8438C156.823 51.6979 157.38 51.5573 157.641 51.4219V54.9531C157.495 55.0885 157.031 55.2344 156.25 55.3906C155.469 55.5469 154.557 55.6406 153.516 55.6719L151.672 55.7344C149.651 55.7969 148.188 56.3229 147.281 57.3125C146.375 58.2917 145.781 59.8802 145.5 62.0781H145.625C146.708 59.974 148.594 58.9219 151.281 58.9219C153.542 58.9219 155.349 59.6406 156.703 61.0781C158.057 62.5052 158.734 64.4323 158.734 66.8594C158.734 69.4948 157.99 71.5729 156.5 73.0938C155.021 74.6042 153.005 75.3594 150.453 75.3594ZM150.375 71.7656C151.542 71.7656 152.448 71.349 153.094 70.5156C153.74 69.6823 154.062 68.5 154.062 66.9688C154.062 65.5 153.734 64.3594 153.078 63.5469C152.432 62.724 151.531 62.3125 150.375 62.3125C149.208 62.3125 148.297 62.724 147.641 63.5469C146.984 64.3594 146.656 65.5 146.656 66.9688C146.656 68.5 146.979 69.6823 147.625 70.5156C148.281 71.349 149.198 71.7656 150.375 71.7656Z" fill="white"/>
</g>
<g data-room="В-78__Г-105">
<rect y="896" width="88" height="128" rx="12" fill="#2563EB"/>
<path  d="M16.3531 968.5H12.8023V951.59H23.7008V954.52H16.3531V968.5ZM32.8484 963.121H25.1492V960.133H32.8484V963.121ZM39.5 968.5V954.836H39.4297L35.1172 957.812V954.625L39.4883 951.59H43.0039V968.5H39.5ZM58.7258 966.496C57.5148 968.082 55.8469 968.875 53.7219 968.875C51.5969 968.875 49.925 968.086 48.7063 966.508C47.4875 964.922 46.8781 962.758 46.8781 960.016C46.8781 957.289 47.4875 955.141 48.7063 953.57C49.9328 951.992 51.6047 951.203 53.7219 951.203C55.8391 951.203 57.507 951.988 58.7258 953.559C59.9445 955.129 60.5539 957.277 60.5539 960.004C60.5539 962.738 59.9445 964.902 58.7258 966.496ZM51.3313 964.457C51.9094 965.512 52.7063 966.039 53.7219 966.039C54.7375 966.039 55.5305 965.516 56.1008 964.469C56.6711 963.414 56.9563 961.93 56.9563 960.016C56.9563 958.117 56.6672 956.648 56.0891 955.609C55.5188 954.562 54.7297 954.039 53.7219 954.039C52.7141 954.039 51.9211 954.562 51.343 955.609C50.7648 956.656 50.4758 958.125 50.4758 960.016C50.4758 961.922 50.7609 963.402 51.3313 964.457ZM69.4203 968.875C67.6078 968.875 66.1078 968.391 64.9203 967.422C63.7406 966.445 63.1234 965.191 63.0688 963.66H66.3383C66.4398 964.379 66.7758 964.961 67.3461 965.406C67.9242 965.852 68.6234 966.074 69.4438 966.074C70.3656 966.074 71.1156 965.785 71.6938 965.207C72.2797 964.621 72.5727 963.867 72.5727 962.945C72.5727 962.008 72.2836 961.242 71.7055 960.648C71.1273 960.055 70.3813 959.758 69.4672 959.758C68.8266 959.758 68.2445 959.898 67.7211 960.18C67.2055 960.453 66.7992 960.832 66.5023 961.316H63.3383L64.1703 951.59H74.9281V954.402H66.9477L66.5609 959.031H66.6313C66.9828 958.453 67.4828 958 68.1313 957.672C68.7875 957.344 69.5414 957.18 70.393 957.18C72.0102 957.18 73.3383 957.715 74.3773 958.785C75.4242 959.848 75.9477 961.203 75.9477 962.852C75.9477 964.641 75.3422 966.094 74.1313 967.211C72.9281 968.32 71.3578 968.875 69.4203 968.875Z" fill="white"/>
</g>
<g data-room="В-78__Г-106-2">
<rect y="516" width="128" height="60" rx="12" fill="#2563EB"/>
<path  d="M10.8281 557H6.09375V534.453H20.625V538.359H10.8281V557ZM32.4219 549.828H22.1562V545.844H32.4219V549.828ZM40.8906 557V538.781H40.7969L35.0469 542.75V538.5L40.875 534.453H45.5625V557H40.8906ZM66.125 554.328C64.5104 556.443 62.2865 557.5 59.4531 557.5C56.6198 557.5 54.3906 556.448 52.7656 554.344C51.1406 552.229 50.3281 549.344 50.3281 545.688C50.3281 542.052 51.1406 539.188 52.7656 537.094C54.401 534.99 56.6302 533.938 59.4531 533.938C62.276 533.938 64.5 534.984 66.125 537.078C67.75 539.172 68.5625 542.036 68.5625 545.672C68.5625 549.318 67.75 552.203 66.125 554.328ZM56.2656 551.609C57.0365 553.016 58.099 553.719 59.4531 553.719C60.8073 553.719 61.8646 553.021 62.625 551.625C63.3854 550.219 63.7656 548.24 63.7656 545.688C63.7656 543.156 63.3802 541.198 62.6094 539.812C61.849 538.417 60.7969 537.719 59.4531 537.719C58.1094 537.719 57.0521 538.417 56.2812 539.812C55.5104 541.208 55.125 543.167 55.125 545.688C55.125 548.229 55.5052 550.203 56.2656 551.609ZM80.5625 557.516C78.9375 557.516 77.4792 557.161 76.1875 556.453C74.9062 555.734 73.8698 554.703 73.0781 553.359C71.8177 551.432 71.1875 548.948 71.1875 545.906C71.1875 542.188 72.0312 539.266 73.7188 537.141C75.4062 535.005 77.7135 533.938 80.6406 533.938C82.7865 533.938 84.625 534.516 86.1562 535.672C87.6875 536.828 88.6094 538.328 88.9219 540.172H84.2812C84.0521 539.422 83.6042 538.818 82.9375 538.359C82.2708 537.901 81.4948 537.672 80.6094 537.672C79.026 537.672 77.7917 538.391 76.9062 539.828C76.0312 541.266 75.6198 543.25 75.6719 545.781H75.7656C76.224 544.667 76.9844 543.776 78.0469 543.109C79.1094 542.443 80.349 542.109 81.7656 542.109C83.9115 542.109 85.6875 542.818 87.0938 544.234C88.5104 545.641 89.2188 547.411 89.2188 549.547C89.2188 551.87 88.4062 553.781 86.7812 555.281C85.1562 556.771 83.0833 557.516 80.5625 557.516ZM80.5156 553.75C81.6615 553.75 82.6302 553.359 83.4219 552.578C84.224 551.786 84.625 550.823 84.625 549.688C84.625 548.521 84.2344 547.557 83.4531 546.797C82.6823 546.036 81.7083 545.656 80.5312 545.656C79.3542 545.656 78.3698 546.036 77.5781 546.797C76.7969 547.557 76.4062 548.505 76.4062 549.641C76.4062 550.786 76.8021 551.76 77.5938 552.562C78.3854 553.354 79.3594 553.75 80.5156 553.75ZM102.672 549.828H92.4062V545.844H102.672V549.828ZM105.953 541.234C105.953 539.099 106.724 537.354 108.266 536C109.818 534.635 111.823 533.953 114.281 533.953C116.646 533.953 118.573 534.568 120.062 535.797C121.552 537.016 122.297 538.573 122.297 540.469C122.297 541.146 122.193 541.802 121.984 542.438C121.786 543.062 121.464 543.693 121.016 544.328C120.578 544.953 120.135 545.521 119.688 546.031C119.24 546.531 118.656 547.141 117.938 547.859L112.438 553.156V553.25H122.609V557H106.219V553.828L114.719 545.641C115.865 544.495 116.646 543.573 117.062 542.875C117.49 542.177 117.703 541.438 117.703 540.656C117.703 539.802 117.365 539.083 116.688 538.5C116.01 537.917 115.156 537.625 114.125 537.625C113.031 537.625 112.125 537.969 111.406 538.656C110.688 539.333 110.328 540.193 110.328 541.234V541.312H105.953V541.234Z" fill="white"/>
</g>
<g data-room="В-78__Г-110-б">
<rect x="208" y="208" width="128" height="60" rx="12" fill="#2563EB"/>
<path  d="M221.641 249H216.906V226.453H231.438V230.359H221.641V249ZM243.234 241.828H232.969V237.844H243.234V241.828ZM251.703 249V230.781H251.609L245.859 234.75V230.5L251.688 226.453H256.375V249H251.703ZM267.078 249V230.781H266.984L261.234 234.75V230.5L267.062 226.453H271.75V249H267.078ZM292.312 246.328C290.698 248.443 288.474 249.5 285.641 249.5C282.807 249.5 280.578 248.448 278.953 246.344C277.328 244.229 276.516 241.344 276.516 237.688C276.516 234.052 277.328 231.188 278.953 229.094C280.589 226.99 282.818 225.938 285.641 225.938C288.464 225.938 290.688 226.984 292.312 229.078C293.938 231.172 294.75 234.036 294.75 237.672C294.75 241.318 293.938 244.203 292.312 246.328ZM282.453 243.609C283.224 245.016 284.286 245.719 285.641 245.719C286.995 245.719 288.052 245.021 288.812 243.625C289.573 242.219 289.953 240.24 289.953 237.688C289.953 235.156 289.568 233.198 288.797 231.812C288.036 230.417 286.984 229.719 285.641 229.719C284.297 229.719 283.24 230.417 282.469 231.812C281.698 233.208 281.312 235.167 281.312 237.688C281.312 240.229 281.693 242.203 282.453 243.609ZM308.266 241.828H298V237.844H308.266V241.828ZM319.812 249.359C317.094 249.359 315 248.516 313.531 246.828C312.073 245.13 311.344 242.656 311.344 239.406C311.344 236.302 311.698 233.776 312.406 231.828C313.125 229.88 314.156 228.464 315.5 227.578C316.844 226.693 318.557 226.219 320.641 226.156L322.594 226.109C323.573 226.078 324.484 225.99 325.328 225.844C326.182 225.698 326.74 225.557 327 225.422V228.953C326.854 229.089 326.391 229.234 325.609 229.391C324.828 229.547 323.917 229.641 322.875 229.672L321.031 229.734C319.01 229.797 317.547 230.323 316.641 231.312C315.734 232.292 315.141 233.88 314.859 236.078H314.984C316.068 233.974 317.953 232.922 320.641 232.922C322.901 232.922 324.708 233.641 326.062 235.078C327.417 236.505 328.094 238.432 328.094 240.859C328.094 243.495 327.349 245.573 325.859 247.094C324.38 248.604 322.365 249.359 319.812 249.359ZM319.734 245.766C320.901 245.766 321.807 245.349 322.453 244.516C323.099 243.682 323.422 242.5 323.422 240.969C323.422 239.5 323.094 238.359 322.438 237.547C321.792 236.724 320.891 236.312 319.734 236.312C318.568 236.312 317.656 236.724 317 237.547C316.344 238.359 316.016 239.5 316.016 240.969C316.016 242.5 316.339 243.682 316.984 244.516C317.641 245.349 318.557 245.766 319.734 245.766Z" fill="white"/>
</g>
<g data-room="В-78__Г-111-б">
<rect x="344" y="208" width="128" height="60" rx="12" fill="#2563EB"/>
<path  d="M360.375 249H355.641V226.453H370.172V230.359H360.375V249ZM381.969 241.828H371.703V237.844H381.969V241.828ZM390.438 249V230.781H390.344L384.594 234.75V230.5L390.422 226.453H395.109V249H390.438ZM405.812 249V230.781H405.719L399.969 234.75V230.5L405.797 226.453H410.484V249H405.812ZM421.188 249V230.781H421.094L415.344 234.75V230.5L421.172 226.453H425.859V249H421.188ZM441.531 241.828H431.266V237.844H441.531V241.828ZM453.078 249.359C450.359 249.359 448.266 248.516 446.797 246.828C445.339 245.13 444.609 242.656 444.609 239.406C444.609 236.302 444.964 233.776 445.672 231.828C446.391 229.88 447.422 228.464 448.766 227.578C450.109 226.693 451.823 226.219 453.906 226.156L455.859 226.109C456.839 226.078 457.75 225.99 458.594 225.844C459.448 225.698 460.005 225.557 460.266 225.422V228.953C460.12 229.089 459.656 229.234 458.875 229.391C458.094 229.547 457.182 229.641 456.141 229.672L454.297 229.734C452.276 229.797 450.812 230.323 449.906 231.312C449 232.292 448.406 233.88 448.125 236.078H448.25C449.333 233.974 451.219 232.922 453.906 232.922C456.167 232.922 457.974 233.641 459.328 235.078C460.682 236.505 461.359 238.432 461.359 240.859C461.359 243.495 460.615 245.573 459.125 247.094C457.646 248.604 455.63 249.359 453.078 249.359ZM453 245.766C454.167 245.766 455.073 245.349 455.719 244.516C456.365 243.682 456.688 242.5 456.688 240.969C456.688 239.5 456.359 238.359 455.703 237.547C455.057 236.724 454.156 236.312 453 236.312C451.833 236.312 450.922 236.724 450.266 237.547C449.609 238.359 449.281 239.5 449.281 240.969C449.281 242.5 449.604 243.682 450.25 244.516C450.906 245.349 451.823 245.766 453 245.766Z" fill="white"/>
</g>
<g data-room="В-78__Г-107">
<rect y="448" width="128" height="60" rx="12" fill="#2563EB"/>
<path  d="M28.9844 489H24.25V466.453H38.7812V470.359H28.9844V489ZM50.5781 481.828H40.3125V477.844H50.5781V481.828ZM59.0469 489V470.781H58.9531L53.2031 474.75V470.5L59.0312 466.453H63.7188V489H59.0469ZM84.2812 486.328C82.6667 488.443 80.4427 489.5 77.6094 489.5C74.776 489.5 72.5469 488.448 70.9219 486.344C69.2969 484.229 68.4844 481.344 68.4844 477.688C68.4844 474.052 69.2969 471.188 70.9219 469.094C72.5573 466.99 74.7865 465.938 77.6094 465.938C80.4323 465.938 82.6562 466.984 84.2812 469.078C85.9062 471.172 86.7188 474.036 86.7188 477.672C86.7188 481.318 85.9062 484.203 84.2812 486.328ZM74.4219 483.609C75.1927 485.016 76.2552 485.719 77.6094 485.719C78.9635 485.719 80.0208 485.021 80.7812 483.625C81.5417 482.219 81.9219 480.24 81.9219 477.688C81.9219 475.156 81.5365 473.198 80.7656 471.812C80.0052 470.417 78.9531 469.719 77.6094 469.719C76.2656 469.719 75.2083 470.417 74.4375 471.812C73.6667 473.208 73.2812 475.167 73.2812 477.688C73.2812 480.229 73.6615 482.203 74.4219 483.609ZM90.2344 489L99.9375 470.297V470.203H88.4688V466.453H104.594V470.25L95.1875 489H90.2344Z" fill="white"/>
</g>
<g >
<rect y="256" width="128" height="64" rx="12" fill="white"/>
<g >
<path  d="M86.4546 271H78.962V278.5C78.962 278.625 78.9463 278.719 78.9151 278.781C78.8527 279.125 78.6888 279.414 78.4234 279.648C78.1581 279.883 77.838 280 77.4634 280H69.9707V287.5C69.9707 287.625 69.9551 287.719 69.9239 287.781C69.8615 288.125 69.6976 288.414 69.4322 288.648C69.1668 288.883 68.8468 289 68.4722 289H60.9795V296.5C60.9795 296.625 60.9639 296.719 60.9327 296.781C60.8702 297.125 60.7063 297.414 60.441 297.648C60.1756 297.883 59.8556 298 59.481 298H51.9883V305.5C51.9883 305.625 51.9727 305.719 51.9415 305.781C51.879 306.125 51.7151 306.414 51.4498 306.648C51.1844 306.883 50.8644 307 50.4898 307H41.4985C41.0927 307 40.7415 306.852 40.4449 306.555C40.1483 306.258 40 305.906 40 305.5C40 305.094 40.1483 304.742 40.4449 304.445C40.7415 304.148 41.0927 304 41.4985 304H48.9912V296.5C48.9912 296.375 49.0068 296.281 49.038 296.219C49.1005 295.875 49.2722 295.586 49.5532 295.352C49.8341 295.117 50.1463 295 50.4898 295H57.9824V287.5C57.9824 287.375 57.998 287.281 58.0293 287.219C58.0917 286.875 58.2634 286.586 58.5444 286.352C58.8254 286.117 59.1376 286 59.481 286H66.9737V278.5C66.9737 278.406 66.9893 278.313 67.0205 278.219C67.0829 277.875 67.2546 277.586 67.5356 277.352C67.8166 277.117 68.1288 277 68.4722 277H75.9649V269.5C75.9649 269.375 75.9805 269.281 76.0117 269.219C76.0741 268.875 76.238 268.586 76.5034 268.352C76.7688 268.117 77.0888 268 77.4634 268H86.4546C86.8605 268 87.2117 268.148 87.5083 268.445C87.8049 268.742 87.9532 269.094 87.9532 269.5C87.9532 269.906 87.8049 270.258 87.5083 270.555C87.2117 270.852 86.8605 271 86.4546 271Z" fill="black"/>
</g>
</g>
<g >
<rect x="512" y="648" width="128" height="168" rx="12" fill="white"/>
<g >
<path  d="M598.455 715H590.962V722.5C590.962 722.625 590.946 722.719 590.915 722.781C590.853 723.125 590.689 723.414 590.423 723.648C590.158 723.883 589.838 724 589.463 724H581.971V731.5C581.971 731.625 581.955 731.719 581.924 731.781C581.861 732.125 581.698 732.414 581.432 732.648C581.167 732.883 580.847 733 580.472 733H572.98V740.5C572.98 740.625 572.964 740.719 572.933 740.781C572.87 741.125 572.706 741.414 572.441 741.648C572.176 741.883 571.856 742 571.481 742H563.988V749.5C563.988 749.625 563.973 749.719 563.941 749.781C563.879 750.125 563.715 750.414 563.45 750.648C563.184 750.883 562.864 751 562.49 751H553.499C553.093 751 552.741 750.852 552.445 750.555C552.148 750.258 552 749.906 552 749.5C552 749.094 552.148 748.742 552.445 748.445C552.741 748.148 553.093 748 553.499 748H560.991V740.5C560.991 740.375 561.007 740.281 561.038 740.219C561.1 739.875 561.272 739.586 561.553 739.352C561.834 739.117 562.146 739 562.49 739H569.982V731.5C569.982 731.375 569.998 731.281 570.029 731.219C570.092 730.875 570.263 730.586 570.544 730.352C570.825 730.117 571.138 730 571.481 730H578.974V722.5C578.974 722.406 578.989 722.313 579.02 722.219C579.083 721.875 579.255 721.586 579.536 721.352C579.817 721.117 580.129 721 580.472 721H587.965V713.5C587.965 713.375 587.98 713.281 588.012 713.219C588.074 712.875 588.238 712.586 588.503 712.352C588.769 712.117 589.089 712 589.463 712H598.455C598.86 712 599.212 712.148 599.508 712.445C599.805 712.742 599.953 713.094 599.953 713.5C599.953 713.906 599.805 714.258 599.508 714.555C599.212 714.852 598.86 715 598.455 715Z" fill="black"/>
</g>
</g>
<g >
<rect  x="52" y="824" width="524" height="64" rx="12" fill="#DADADA"/>
<rect  width="128" height="200" rx="12" transform="matrix(1 0 0 -1 512 1024)" fill="#DADADA"/>
<rect  x="136" y="136" width="336" height="64" rx="12" fill="#DADADA"/>
<rect  x="136" y="136" width="64" height="752" rx="12" fill="#DADADA"/>
<rect  x="864" y="1024" width="1024" height="288" rx="12" transform="rotate(-90 864 1024)" fill="#777D89"/>
<rect  x="723" y="268" width="268" height="429" rx="12" transform="rotate(-90 723 268)" fill="#777D89"/>
<rect  x="648" y="1024" width="336" height="499" rx="12" transform="rotate(-90 648 1024)" fill="#777D89"/>
<rect  x="512" y="803" width="128" height="38" fill="#DADADA"/>
<rect  x="113" y="256" width="23" height="64" fill="#DADADA"/>
<rect  x="455" y="888" width="32" height="8" fill="#DADADA"/>
<rect  x="391" y="888" width="16" height="8" fill="#DADADA"/>
<rect  x="252" y="888" width="16" height="8" fill="#DADADA"/>
<rect  x="152" y="888" width="16" height="8" fill="#DADADA"/>
<rect  x="128" y="780" width="8" height="16" fill="#DADADA"/>
<rect  x="128" y="730" width="8" height="16" fill="#DADADA"/>
<rect  x="128" y="538" width="8" height="16" fill="#DADADA"/>
<rect  x="128" y="470" width="8" height="16" fill="#DADADA"/>
<rect  x="128" y="376" width="8" height="16" fill="#DADADA"/>
<rect  x="128" y="216" width="8" height="16" fill="#DADADA"/>
<rect  x="168" y="128" width="16" height="8" fill="#DADADA"/>
<rect  x="227" y="128" width="16" height="8" fill="#DADADA"/>
<rect  x="227" y="200" width="16" height="8" fill="#DADADA"/>
<rect  x="356" y="200" width="16" height="8" fill="#DADADA"/>
<rect  x="356" y="128" width="16" height="8" fill="#DADADA"/>
<rect  x="90" y="576" width="16" height="8" fill="#DADADA"/>
<rect  x="61" y="888" width="16" height="8" fill="#DADADA"/>
<rect  x="297" y="816" width="16" height="8" fill="#DADADA"/>
<rect  x="374" y="816" width="16" height="8" fill="#DADADA"/>
</g>
<g  clip-path="url(#clip1_966_1099)">
<path  d="M559.375 603V453.875H637.75V422.625H521.5V603H559.375Z" fill="#2563EB"/>
</g>
<g data-room="В-78__Г-106">
<g >
<rect y="704" width="128" height="112" rx="12" fill="#2563EB"/>
<path  d="M27.5625 771H22.8281V748.453H37.3594V752.359H27.5625V771ZM49.1562 763.828H38.8906V759.844H49.1562V763.828ZM57.625 771V752.781H57.5312L51.7812 756.75V752.5L57.6094 748.453H62.2969V771H57.625ZM82.8594 768.328C81.2448 770.443 79.0208 771.5 76.1875 771.5C73.3542 771.5 71.125 770.448 69.5 768.344C67.875 766.229 67.0625 763.344 67.0625 759.688C67.0625 756.052 67.875 753.188 69.5 751.094C71.1354 748.99 73.3646 747.938 76.1875 747.938C79.0104 747.938 81.2344 748.984 82.8594 751.078C84.4844 753.172 85.2969 756.036 85.2969 759.672C85.2969 763.318 84.4844 766.203 82.8594 768.328ZM73 765.609C73.7708 767.016 74.8333 767.719 76.1875 767.719C77.5417 767.719 78.599 767.021 79.3594 765.625C80.1198 764.219 80.5 762.24 80.5 759.688C80.5 757.156 80.1146 755.198 79.3438 753.812C78.5833 752.417 77.5312 751.719 76.1875 751.719C74.8438 751.719 73.7865 752.417 73.0156 753.812C72.2448 755.208 71.8594 757.167 71.8594 759.688C71.8594 762.229 72.2396 764.203 73 765.609ZM97.2969 771.516C95.6719 771.516 94.2135 771.161 92.9219 770.453C91.6406 769.734 90.6042 768.703 89.8125 767.359C88.5521 765.432 87.9219 762.948 87.9219 759.906C87.9219 756.188 88.7656 753.266 90.4531 751.141C92.1406 749.005 94.4479 747.938 97.375 747.938C99.5208 747.938 101.359 748.516 102.891 749.672C104.422 750.828 105.344 752.328 105.656 754.172H101.016C100.786 753.422 100.339 752.818 99.6719 752.359C99.0052 751.901 98.2292 751.672 97.3438 751.672C95.7604 751.672 94.526 752.391 93.6406 753.828C92.7656 755.266 92.3542 757.25 92.4062 759.781H92.5C92.9583 758.667 93.7188 757.776 94.7812 757.109C95.8438 756.443 97.0833 756.109 98.5 756.109C100.646 756.109 102.422 756.818 103.828 758.234C105.245 759.641 105.953 761.411 105.953 763.547C105.953 765.87 105.141 767.781 103.516 769.281C101.891 770.771 99.8177 771.516 97.2969 771.516ZM97.25 767.75C98.3958 767.75 99.3646 767.359 100.156 766.578C100.958 765.786 101.359 764.823 101.359 763.688C101.359 762.521 100.969 761.557 100.188 760.797C99.4167 760.036 98.4427 759.656 97.2656 759.656C96.0885 759.656 95.1042 760.036 94.3125 760.797C93.5312 761.557 93.1406 762.505 93.1406 763.641C93.1406 764.786 93.5365 765.76 94.3281 766.562C95.1198 767.354 96.0938 767.75 97.25 767.75Z" fill="white"/>
</g>
<path  d="M0 805H44V876C44 882.627 38.6274 888 32 888H12C5.37258 888 0 882.627 0 876L0 805Z" fill="#2563EB"/>
</g>
</g>
<defs>
<clipPath >
<rect width="48" height="48" fill="white" transform="translate(448 936)"/>
</clipPath>
<clipPath >
<rect width="141" height="358" fill="white" transform="translate(505 333)"/>
</clipPath>
</defs>
</svg>
