<svg width="1152" height="1024" viewBox="0 0 1152 1024" fill="none" xmlns="http://www.w3.org/2000/svg">
<g >
<rect width="1152" height="1024" fill="#F9F9F9"/>
<rect  x="1016" y="312" width="64" height="27" transform="rotate(-90 1016 312)" fill="#DADADA"/>
<rect  x="136" y="824" width="880" height="64" rx="12" fill="#DADADA"/>
<rect  x="136" y="888" width="752" height="64" rx="12" transform="rotate(-90 136 888)" fill="#DADADA"/>
<rect  x="160" y="888" width="16" height="8" fill="#DADADA"/>
<rect  x="232" y="888" width="16" height="8" fill="#DADADA"/>
<rect  x="240" y="816" width="16" height="8" fill="#DADADA"/>
<rect  x="348" y="816" width="16" height="8" fill="#DADADA"/>
<rect  x="449" y="816" width="16" height="8" fill="#DADADA"/>
<rect  x="360" y="888" width="16" height="8" fill="#DADADA"/>
<rect  x="600" y="888" width="16" height="8" fill="#DADADA"/>
<rect  x="696" y="888" width="16" height="8" fill="#DADADA"/>
<rect  x="904" y="888" width="16" height="8" fill="#DADADA"/>
<rect  x="984" y="888" width="16" height="8" fill="#DADADA"/>
<rect  x="795" y="816" width="16" height="8" fill="#DADADA"/>
<rect  x="737" y="816" width="16" height="8" fill="#DADADA"/>
<rect  x="672" y="816" width="16" height="8" fill="#DADADA"/>
<rect  x="512" y="787" width="128" height="37" fill="#DADADA"/>
<rect  x="136" y="290" width="64" height="416" rx="12" transform="rotate(-90 136 290)" fill="#DADADA"/>
<rect  x="96" y="362" width="64" height="40" transform="rotate(-90 96 362)" fill="#DADADA"/>
<path  d="M780 290C773.373 290 768 284.627 768 278V226H1004C1010.63 226 1016 231.373 1016 238V278C1016 284.627 1010.63 290 1004 290H780Z" fill="#DADADA"/>
<rect  x="952" y="888" width="784" height="64" rx="12" transform="rotate(-90 952 888)" fill="#DADADA"/>
<g data-room="В-78__Г-423-1">
<rect x="136" width="64" height="128" rx="12" fill="#2563EB"/>
<path  d="M176.5 104.58V108.13H159.59V97.232H162.52V104.58H176.5ZM171.121 88.0844V95.7836H168.133V88.0844H171.121ZM176.5 77.0617H173.488V85.4758H170.477C167.852 84.1008 164.223 81.8391 159.59 78.6906V73.6984H170.652V71.4953H173.488V73.6984H176.5V77.0617ZM170.664 82.3703H170.758V76.9914H162.098V77.0617C164.004 78.3664 165.594 79.4133 166.867 80.2023C168.133 80.9914 169.398 81.7141 170.664 82.3703ZM164.676 69.4609C163.074 69.4609 161.766 68.8828 160.75 67.7266C159.727 66.5625 159.215 65.0586 159.215 63.2148C159.215 61.4414 159.676 59.9961 160.598 58.8789C161.512 57.7617 162.68 57.2031 164.102 57.2031C164.609 57.2031 165.102 57.2812 165.578 57.4375C166.047 57.5859 166.52 57.8281 166.996 58.1641C167.465 58.4922 167.891 58.8242 168.273 59.1602C168.648 59.4961 169.105 59.9336 169.645 60.4727L173.617 64.5977H173.688V56.9688H176.5V69.2617H174.121L167.98 62.8867C167.121 62.0273 166.43 61.4414 165.906 61.1289C165.383 60.8086 164.828 60.6484 164.242 60.6484C163.602 60.6484 163.062 60.9023 162.625 61.4102C162.188 61.918 161.969 62.5586 161.969 63.332C161.969 64.1523 162.227 64.832 162.742 65.3711C163.25 65.9102 163.895 66.1797 164.676 66.1797H164.734V69.4609H164.676ZM169.117 50.3641H166.562V48.3133C166.562 47.5086 166.344 46.8563 165.906 46.3563C165.469 45.8563 164.902 45.6063 164.207 45.6063C163.512 45.6063 162.961 45.8445 162.555 46.3211C162.141 46.7977 161.934 47.4695 161.934 48.3367C161.934 49.157 162.156 49.8211 162.602 50.3289C163.047 50.8367 163.641 51.1141 164.383 51.1609V54.4188C162.812 54.3563 161.559 53.7586 160.621 52.6258C159.684 51.493 159.215 50.0125 159.215 48.1844C159.215 46.4188 159.629 44.993 160.457 43.907C161.285 42.8133 162.375 42.2664 163.727 42.2664C164.75 42.2664 165.617 42.5867 166.328 43.2273C167.039 43.868 167.488 44.7117 167.676 45.7586H167.746C167.855 44.4852 168.273 43.4773 169 42.7352C169.719 41.9852 170.66 41.6102 171.824 41.6102C173.332 41.6102 174.551 42.2313 175.48 43.4734C176.41 44.7078 176.875 46.3055 176.875 48.2664C176.875 50.1648 176.398 51.7 175.445 52.8719C174.492 54.0359 173.23 54.6609 171.66 54.7469V51.3602C172.379 51.3055 172.953 51.0008 173.383 50.4461C173.812 49.8836 174.027 49.1414 174.027 48.2195C174.027 47.3367 173.801 46.6141 173.348 46.0516C172.895 45.4891 172.312 45.2078 171.602 45.2078C170.828 45.2078 170.223 45.4813 169.785 46.0281C169.34 46.575 169.117 47.325 169.117 48.2781V50.3641ZM171.121 31.1031V38.8023H168.133V31.1031H171.121ZM176.5 24.4516H162.836V24.5219L165.812 28.8344H162.625L159.59 24.4633V20.9477H176.5V24.4516Z" fill="white"/>
</g>
<g data-room="В-78__Г-424-2">
<rect x="344" width="64" height="218" rx="12" fill="#2563EB"/>
<path  d="M387 164.328V169.062H364.453V154.531H368.359V164.328H387ZM379.828 142.734V153H375.844V142.734H379.828ZM387 128.438H382.984V139.656H378.969C375.469 137.823 370.63 134.807 364.453 130.609V123.953H379.203V121.016H382.984V123.953H387V128.438ZM379.219 135.516H379.344V128.344H367.797V128.438C370.339 130.177 372.458 131.573 374.156 132.625C375.844 133.677 377.531 134.641 379.219 135.516ZM371.234 118.703C369.099 118.703 367.354 117.932 366 116.391C364.635 114.839 363.953 112.833 363.953 110.375C363.953 108.01 364.568 106.083 365.797 104.594C367.016 103.104 368.573 102.359 370.469 102.359C371.146 102.359 371.802 102.464 372.438 102.672C373.062 102.87 373.693 103.193 374.328 103.641C374.953 104.078 375.521 104.521 376.031 104.969C376.531 105.417 377.141 106 377.859 106.719L383.156 112.219H383.25V102.047H387V118.438H383.828L375.641 109.938C374.495 108.792 373.573 108.01 372.875 107.594C372.177 107.167 371.438 106.953 370.656 106.953C369.802 106.953 369.083 107.292 368.5 107.969C367.917 108.646 367.625 109.5 367.625 110.531C367.625 111.625 367.969 112.531 368.656 113.25C369.333 113.969 370.193 114.328 371.234 114.328H371.312V118.703H371.234ZM387 88.7812H382.984V100H378.969C375.469 98.1667 370.63 95.151 364.453 90.9531V84.2969H379.203V81.3594H382.984V84.2969H387V88.7812ZM379.219 95.8594H379.344V88.6875H367.797V88.7812C370.339 90.5208 372.458 91.9167 374.156 92.9688C375.844 94.0208 377.531 94.9844 379.219 95.8594ZM379.828 68.1719V78.4375H375.844V68.1719H379.828ZM371.234 64.8906C369.099 64.8906 367.354 64.1198 366 62.5781C364.635 61.026 363.953 59.0208 363.953 56.5625C363.953 54.1979 364.568 52.2708 365.797 50.7812C367.016 49.2917 368.573 48.5469 370.469 48.5469C371.146 48.5469 371.802 48.651 372.438 48.8594C373.062 49.0573 373.693 49.3802 374.328 49.8281C374.953 50.2656 375.521 50.7083 376.031 51.1562C376.531 51.6042 377.141 52.1875 377.859 52.9062L383.156 58.4062H383.25V48.2344H387V64.625H383.828L375.641 56.125C374.495 54.9792 373.573 54.1979 372.875 53.7812C372.177 53.3542 371.438 53.1406 370.656 53.1406C369.802 53.1406 369.083 53.4792 368.5 54.1562C367.917 54.8333 367.625 55.6875 367.625 56.7188C367.625 57.8125 367.969 58.7188 368.656 59.4375C369.333 60.1562 370.193 60.5156 371.234 60.5156H371.312V64.8906H371.234Z" fill="white"/>
</g>
<g data-room="В-78__Г-424-3">
<rect x="416" width="64" height="218" rx="12" fill="#2563EB"/>
<path  d="M459 164.75V169.484H436.453V154.953H440.359V164.75H459ZM451.828 143.156V153.422H447.844V143.156H451.828ZM459 128.859H454.984V140.078H450.969C447.469 138.245 442.63 135.229 436.453 131.031V124.375H451.203V121.438H454.984V124.375H459V128.859ZM451.219 135.938H451.344V128.766H439.797V128.859C442.339 130.599 444.458 131.995 446.156 133.047C447.844 134.099 449.531 135.062 451.219 135.938ZM443.234 119.125C441.099 119.125 439.354 118.354 438 116.812C436.635 115.26 435.953 113.255 435.953 110.797C435.953 108.432 436.568 106.505 437.797 105.016C439.016 103.526 440.573 102.781 442.469 102.781C443.146 102.781 443.802 102.885 444.438 103.094C445.062 103.292 445.693 103.615 446.328 104.062C446.953 104.5 447.521 104.943 448.031 105.391C448.531 105.839 449.141 106.422 449.859 107.141L455.156 112.641H455.25V102.469H459V118.859H455.828L447.641 110.359C446.495 109.214 445.573 108.432 444.875 108.016C444.177 107.589 443.438 107.375 442.656 107.375C441.802 107.375 441.083 107.714 440.5 108.391C439.917 109.068 439.625 109.922 439.625 110.953C439.625 112.047 439.969 112.953 440.656 113.672C441.333 114.391 442.193 114.75 443.234 114.75H443.312V119.125H443.234ZM459 89.2031H454.984V100.422H450.969C447.469 98.5885 442.63 95.5729 436.453 91.375V84.7188H451.203V81.7812H454.984V84.7188H459V89.2031ZM451.219 96.2812H451.344V89.1094H439.797V89.2031C442.339 90.9427 444.458 92.3385 446.156 93.3906C447.844 94.4427 449.531 95.4062 451.219 96.2812ZM451.828 68.5938V78.8594H447.844V68.5938H451.828ZM449.156 59.5625H445.75V56.8281C445.75 55.7552 445.458 54.8854 444.875 54.2188C444.292 53.5521 443.536 53.2188 442.609 53.2188C441.682 53.2188 440.948 53.5365 440.406 54.1719C439.854 54.8073 439.578 55.7031 439.578 56.8594C439.578 57.9531 439.875 58.8385 440.469 59.5156C441.062 60.1927 441.854 60.5625 442.844 60.625V64.9688C440.75 64.8854 439.078 64.0885 437.828 62.5781C436.578 61.0677 435.953 59.0938 435.953 56.6562C435.953 54.3021 436.505 52.401 437.609 50.9531C438.714 49.4948 440.167 48.7656 441.969 48.7656C443.333 48.7656 444.49 49.1927 445.438 50.0469C446.385 50.901 446.984 52.026 447.234 53.4219H447.328C447.474 51.724 448.031 50.3802 449 49.3906C449.958 48.3906 451.214 47.8906 452.766 47.8906C454.776 47.8906 456.401 48.7188 457.641 50.375C458.88 52.0208 459.5 54.151 459.5 56.7656C459.5 59.2969 458.865 61.3438 457.594 62.9062C456.323 64.4583 454.641 65.2917 452.547 65.4062V60.8906C453.505 60.8177 454.271 60.4115 454.844 59.6719C455.417 58.9219 455.703 57.9323 455.703 56.7031C455.703 55.526 455.401 54.5625 454.797 53.8125C454.193 53.0625 453.417 52.6875 452.469 52.6875C451.438 52.6875 450.63 53.0521 450.047 53.7812C449.453 54.5104 449.156 55.5104 449.156 56.7812V59.5625Z" fill="white"/>
</g>
<g data-room="В-78__Г-424-4">
<rect x="488" width="64" height="218" rx="12" fill="#2563EB"/>
<path  d="M531 165.047V169.781H508.453V155.25H512.359V165.047H531ZM523.828 143.453V153.719H519.844V143.453H523.828ZM531 129.156H526.984V140.375H522.969C519.469 138.542 514.63 135.526 508.453 131.328V124.672H523.203V121.734H526.984V124.672H531V129.156ZM523.219 136.234H523.344V129.062H511.797V129.156C514.339 130.896 516.458 132.292 518.156 133.344C519.844 134.396 521.531 135.359 523.219 136.234ZM515.234 119.422C513.099 119.422 511.354 118.651 510 117.109C508.635 115.557 507.953 113.552 507.953 111.094C507.953 108.729 508.568 106.802 509.797 105.312C511.016 103.823 512.573 103.078 514.469 103.078C515.146 103.078 515.802 103.182 516.438 103.391C517.062 103.589 517.693 103.911 518.328 104.359C518.953 104.797 519.521 105.24 520.031 105.688C520.531 106.135 521.141 106.719 521.859 107.438L527.156 112.938H527.25V102.766H531V119.156H527.828L519.641 110.656C518.495 109.51 517.573 108.729 516.875 108.312C516.177 107.885 515.438 107.672 514.656 107.672C513.802 107.672 513.083 108.01 512.5 108.688C511.917 109.365 511.625 110.219 511.625 111.25C511.625 112.344 511.969 113.25 512.656 113.969C513.333 114.688 514.193 115.047 515.234 115.047H515.312V119.422H515.234ZM531 89.5H526.984V100.719H522.969C519.469 98.8854 514.63 95.8698 508.453 91.6719V85.0156H523.203V82.0781H526.984V85.0156H531V89.5ZM523.219 96.5781H523.344V89.4062H511.797V89.5C514.339 91.2396 516.458 92.6354 518.156 93.6875C519.844 94.7396 521.531 95.7031 523.219 96.5781ZM523.828 68.8906V79.1562H519.844V68.8906H523.828ZM531 54.5938H526.984V65.8125H522.969C519.469 63.9792 514.63 60.9635 508.453 56.7656V50.1094H523.203V47.1719H526.984V50.1094H531V54.5938ZM523.219 61.6719H523.344V54.5H511.797V54.5938C514.339 56.3333 516.458 57.7292 518.156 58.7812C519.844 59.8333 521.531 60.7969 523.219 61.6719Z" fill="white"/>
</g>
<g data-room="В-78__Г-424-5">
<rect x="560" width="64" height="290" rx="12" fill="#2563EB"/>
<path  d="M603 200.672V205.406H580.453V190.875H584.359V200.672H603ZM595.828 179.078V189.344H591.844V179.078H595.828ZM603 164.781H598.984V176H594.969C591.469 174.167 586.63 171.151 580.453 166.953V160.297H595.203V157.359H598.984V160.297H603V164.781ZM595.219 171.859H595.344V164.688H583.797V164.781C586.339 166.521 588.458 167.917 590.156 168.969C591.844 170.021 593.531 170.984 595.219 171.859ZM587.234 155.047C585.099 155.047 583.354 154.276 582 152.734C580.635 151.182 579.953 149.177 579.953 146.719C579.953 144.354 580.568 142.427 581.797 140.938C583.016 139.448 584.573 138.703 586.469 138.703C587.146 138.703 587.802 138.807 588.438 139.016C589.062 139.214 589.693 139.536 590.328 139.984C590.953 140.422 591.521 140.865 592.031 141.312C592.531 141.76 593.141 142.344 593.859 143.062L599.156 148.562H599.25V138.391H603V154.781H599.828L591.641 146.281C590.495 145.135 589.573 144.354 588.875 143.938C588.177 143.51 587.438 143.297 586.656 143.297C585.802 143.297 585.083 143.635 584.5 144.312C583.917 144.99 583.625 145.844 583.625 146.875C583.625 147.969 583.969 148.875 584.656 149.594C585.333 150.312 586.193 150.672 587.234 150.672H587.312V155.047H587.234ZM603 125.125H598.984V136.344H594.969C591.469 134.51 586.63 131.495 580.453 127.297V120.641H595.203V117.703H598.984V120.641H603V125.125ZM595.219 132.203H595.344V125.031H583.797V125.125C586.339 126.865 588.458 128.26 590.156 129.312C591.844 130.365 593.531 131.328 595.219 132.203ZM595.828 104.516V114.781H591.844V104.516H595.828ZM603.5 92.2969C603.5 94.7135 602.854 96.7135 601.562 98.2969C600.26 99.8698 598.589 100.693 596.547 100.766V96.4062C597.505 96.2708 598.281 95.8229 598.875 95.0625C599.469 94.2917 599.766 93.3594 599.766 92.2656C599.766 91.0365 599.38 90.0365 598.609 89.2656C597.828 88.4844 596.823 88.0938 595.594 88.0938C594.344 88.0938 593.323 88.4792 592.531 89.25C591.74 90.0208 591.344 91.0156 591.344 92.2344C591.344 93.0885 591.531 93.8646 591.906 94.5625C592.271 95.25 592.776 95.7917 593.422 96.1875V100.406L580.453 99.2969V84.9531H584.203V95.5938L590.375 96.1094V96.0156C589.604 95.5469 589 94.8802 588.562 94.0156C588.125 93.1406 587.906 92.1354 587.906 91C587.906 88.8438 588.62 87.0729 590.047 85.6875C591.464 84.2917 593.271 83.5938 595.469 83.5938C597.854 83.5938 599.792 84.401 601.281 86.0156C602.76 87.6198 603.5 89.7135 603.5 92.2969Z" fill="white"/>
</g>
<g data-room="В-78__Г-430">
<rect x="836" y="688" width="50" height="128" rx="12" fill="#2563EB"/>
<path  d="M872 791.219V795.953H849.453V781.422H853.359V791.219H872ZM864.828 769.625V779.891H860.844V769.625H864.828ZM872 755.328H867.984V766.547H863.969C860.469 764.714 855.63 761.698 849.453 757.5V750.844H864.203V747.906H867.984V750.844H872V755.328ZM864.219 762.406H864.344V755.234H852.797V755.328C855.339 757.068 857.458 758.464 859.156 759.516C860.844 760.568 862.531 761.531 864.219 762.406ZM862.156 739.844H858.75V737.109C858.75 736.036 858.458 735.167 857.875 734.5C857.292 733.833 856.536 733.5 855.609 733.5C854.682 733.5 853.948 733.818 853.406 734.453C852.854 735.089 852.578 735.984 852.578 737.141C852.578 738.234 852.875 739.12 853.469 739.797C854.062 740.474 854.854 740.844 855.844 740.906V745.25C853.75 745.167 852.078 744.37 850.828 742.859C849.578 741.349 848.953 739.375 848.953 736.938C848.953 734.583 849.505 732.682 850.609 731.234C851.714 729.776 853.167 729.047 854.969 729.047C856.333 729.047 857.49 729.474 858.438 730.328C859.385 731.182 859.984 732.307 860.234 733.703H860.328C860.474 732.005 861.031 730.661 862 729.672C862.958 728.672 864.214 728.172 865.766 728.172C867.776 728.172 869.401 729 870.641 730.656C871.88 732.302 872.5 734.432 872.5 737.047C872.5 739.578 871.865 741.625 870.594 743.188C869.323 744.74 867.641 745.573 865.547 745.688V741.172C866.505 741.099 867.271 740.693 867.844 739.953C868.417 739.203 868.703 738.214 868.703 736.984C868.703 735.807 868.401 734.844 867.797 734.094C867.193 733.344 866.417 732.969 865.469 732.969C864.438 732.969 863.63 733.333 863.047 734.062C862.453 734.792 862.156 735.792 862.156 737.062V739.844ZM869.328 709.766C871.443 711.38 872.5 713.604 872.5 716.438C872.5 719.271 871.448 721.5 869.344 723.125C867.229 724.75 864.344 725.562 860.688 725.562C857.052 725.562 854.188 724.75 852.094 723.125C849.99 721.49 848.938 719.26 848.938 716.438C848.938 713.615 849.984 711.391 852.078 709.766C854.172 708.141 857.036 707.328 860.672 707.328C864.318 707.328 867.203 708.141 869.328 709.766ZM866.609 719.625C868.016 718.854 868.719 717.792 868.719 716.438C868.719 715.083 868.021 714.026 866.625 713.266C865.219 712.505 863.24 712.125 860.688 712.125C858.156 712.125 856.198 712.51 854.812 713.281C853.417 714.042 852.719 715.094 852.719 716.438C852.719 717.781 853.417 718.839 854.812 719.609C856.208 720.38 858.167 720.766 860.688 720.766C863.229 720.766 865.203 720.385 866.609 719.625Z" fill="white"/>
</g>
<g data-room="В-78__Г-430-1">
<rect x="894" y="688" width="50" height="128" rx="12" fill="#2563EB"/>
<path  d="M930 805.625V810.359H907.453V795.828H911.359V805.625H930ZM922.828 784.031V794.297H918.844V784.031H922.828ZM930 769.734H925.984V780.953H921.969C918.469 779.12 913.63 776.104 907.453 771.906V765.25H922.203V762.312H925.984V765.25H930V769.734ZM922.219 776.812H922.344V769.641H910.797V769.734C913.339 771.474 915.458 772.87 917.156 773.922C918.844 774.974 920.531 775.938 922.219 776.812ZM920.156 754.25H916.75V751.516C916.75 750.443 916.458 749.573 915.875 748.906C915.292 748.24 914.536 747.906 913.609 747.906C912.682 747.906 911.948 748.224 911.406 748.859C910.854 749.495 910.578 750.391 910.578 751.547C910.578 752.641 910.875 753.526 911.469 754.203C912.062 754.88 912.854 755.25 913.844 755.312V759.656C911.75 759.573 910.078 758.776 908.828 757.266C907.578 755.755 906.953 753.781 906.953 751.344C906.953 748.99 907.505 747.089 908.609 745.641C909.714 744.182 911.167 743.453 912.969 743.453C914.333 743.453 915.49 743.88 916.438 744.734C917.385 745.589 917.984 746.714 918.234 748.109H918.328C918.474 746.411 919.031 745.068 920 744.078C920.958 743.078 922.214 742.578 923.766 742.578C925.776 742.578 927.401 743.406 928.641 745.062C929.88 746.708 930.5 748.839 930.5 751.453C930.5 753.984 929.865 756.031 928.594 757.594C927.323 759.146 925.641 759.979 923.547 760.094V755.578C924.505 755.505 925.271 755.099 925.844 754.359C926.417 753.609 926.703 752.62 926.703 751.391C926.703 750.214 926.401 749.25 925.797 748.5C925.193 747.75 924.417 747.375 923.469 747.375C922.438 747.375 921.63 747.74 921.047 748.469C920.453 749.198 920.156 750.198 920.156 751.469V754.25ZM927.328 724.172C929.443 725.786 930.5 728.01 930.5 730.844C930.5 733.677 929.448 735.906 927.344 737.531C925.229 739.156 922.344 739.969 918.688 739.969C915.052 739.969 912.188 739.156 910.094 737.531C907.99 735.896 906.938 733.667 906.938 730.844C906.938 728.021 907.984 725.797 910.078 724.172C912.172 722.547 915.036 721.734 918.672 721.734C922.318 721.734 925.203 722.547 927.328 724.172ZM924.609 734.031C926.016 733.26 926.719 732.198 926.719 730.844C926.719 729.49 926.021 728.432 924.625 727.672C923.219 726.911 921.24 726.531 918.688 726.531C916.156 726.531 914.198 726.917 912.812 727.688C911.417 728.448 910.719 729.5 910.719 730.844C910.719 732.188 911.417 733.245 912.812 734.016C914.208 734.786 916.167 735.172 918.688 735.172C921.229 735.172 923.203 734.792 924.609 734.031ZM922.828 708.219V718.484H918.844V708.219H922.828ZM930 699.75H911.781V699.844L915.75 705.594H911.5L907.453 699.766V695.078H930V699.75Z" fill="white"/>
</g>
<g data-room="В-78__Г-428">
<rect x="720" y="688" width="50" height="128" rx="12" fill="#2563EB"/>
<path  d="M756 790.859V795.594H733.453V781.062H737.359V790.859H756ZM748.828 769.266V779.531H744.844V769.266H748.828ZM756 754.969H751.984V766.188H747.969C744.469 764.354 739.63 761.339 733.453 757.141V750.484H748.203V747.547H751.984V750.484H756V754.969ZM748.219 762.047H748.344V754.875H736.797V754.969C739.339 756.708 741.458 758.104 743.156 759.156C744.844 760.208 746.531 761.172 748.219 762.047ZM740.234 745.234C738.099 745.234 736.354 744.464 735 742.922C733.635 741.37 732.953 739.365 732.953 736.906C732.953 734.542 733.568 732.615 734.797 731.125C736.016 729.635 737.573 728.891 739.469 728.891C740.146 728.891 740.802 728.995 741.438 729.203C742.062 729.401 742.693 729.724 743.328 730.172C743.953 730.609 744.521 731.052 745.031 731.5C745.531 731.948 746.141 732.531 746.859 733.25L752.156 738.75H752.25V728.578H756V744.969H752.828L744.641 736.469C743.495 735.323 742.573 734.542 741.875 734.125C741.177 733.698 740.438 733.484 739.656 733.484C738.802 733.484 738.083 733.823 737.5 734.5C736.917 735.177 736.625 736.031 736.625 737.062C736.625 738.156 736.969 739.062 737.656 739.781C738.333 740.5 739.193 740.859 740.234 740.859H740.312V745.234H740.234ZM756.5 716.812C756.5 719.542 755.891 721.75 754.672 723.438C753.443 725.115 751.849 725.953 749.891 725.953C748.411 725.953 747.146 725.464 746.094 724.484C745.031 723.505 744.37 722.229 744.109 720.656H744.016C743.714 721.969 743.099 723.031 742.172 723.844C741.234 724.646 740.146 725.047 738.906 725.047C737.177 725.047 735.755 724.276 734.641 722.734C733.516 721.193 732.953 719.219 732.953 716.812C732.953 714.396 733.516 712.422 734.641 710.891C735.755 709.359 737.182 708.594 738.922 708.594C740.141 708.594 741.219 708.995 742.156 709.797C743.083 710.599 743.703 711.656 744.016 712.969H744.109C744.38 711.385 745.047 710.109 746.109 709.141C747.161 708.161 748.427 707.672 749.906 707.672C751.865 707.672 753.453 708.521 754.672 710.219C755.891 711.906 756.5 714.104 756.5 716.812ZM752.078 719.859C752.734 719.068 753.062 718.052 753.062 716.812C753.062 715.573 752.734 714.562 752.078 713.781C751.411 713 750.568 712.609 749.547 712.609C748.526 712.609 747.688 713 747.031 713.781C746.365 714.562 746.031 715.573 746.031 716.812C746.031 718.052 746.365 719.068 747.031 719.859C747.688 720.641 748.526 721.031 749.547 721.031C750.568 721.031 751.411 720.641 752.078 719.859ZM741.719 719.375C742.302 718.708 742.594 717.854 742.594 716.812C742.594 715.771 742.302 714.917 741.719 714.25C741.125 713.583 740.38 713.25 739.484 713.25C738.578 713.25 737.833 713.583 737.25 714.25C736.656 714.917 736.359 715.771 736.359 716.812C736.359 717.854 736.656 718.708 737.25 719.375C737.833 720.042 738.578 720.375 739.484 720.375C740.391 720.375 741.135 720.042 741.719 719.375Z" fill="white"/>
</g>
<g data-room="В-78__Г-427">
<rect x="410" y="688" width="94" height="128" rx="12" fill="#2563EB"/>
<path  d="M468 789.578V794.312H445.453V779.781H449.359V789.578H468ZM460.828 767.984V778.25H456.844V767.984H460.828ZM468 753.688H463.984V764.906H459.969C456.469 763.073 451.63 760.057 445.453 755.859V749.203H460.203V746.266H463.984V749.203H468V753.688ZM460.219 760.766H460.344V753.594H448.797V753.688C451.339 755.427 453.458 756.823 455.156 757.875C456.844 758.927 458.531 759.891 460.219 760.766ZM452.234 743.953C450.099 743.953 448.354 743.182 447 741.641C445.635 740.089 444.953 738.083 444.953 735.625C444.953 733.26 445.568 731.333 446.797 729.844C448.016 728.354 449.573 727.609 451.469 727.609C452.146 727.609 452.802 727.714 453.438 727.922C454.062 728.12 454.693 728.443 455.328 728.891C455.953 729.328 456.521 729.771 457.031 730.219C457.531 730.667 458.141 731.25 458.859 731.969L464.156 737.469H464.25V727.297H468V743.688H464.828L456.641 735.188C455.495 734.042 454.573 733.26 453.875 732.844C453.177 732.417 452.438 732.203 451.656 732.203C450.802 732.203 450.083 732.542 449.5 733.219C448.917 733.896 448.625 734.75 448.625 735.781C448.625 736.875 448.969 737.781 449.656 738.5C450.333 739.219 451.193 739.578 452.234 739.578H452.312V743.953H452.234ZM468 723.203L449.297 713.5H449.203V724.969H445.453V708.844H449.25L468 718.25V723.203Z" fill="white"/>
</g>
<g data-room="В-78__Г-426">
<rect x="310" y="688" width="92" height="128" rx="12" fill="#2563EB"/>
<path  d="M367 790.672V795.406H344.453V780.875H348.359V790.672H367ZM359.828 769.078V779.344H355.844V769.078H359.828ZM367 754.781H362.984V766H358.969C355.469 764.167 350.63 761.151 344.453 756.953V750.297H359.203V747.359H362.984V750.297H367V754.781ZM359.219 761.859H359.344V754.688H347.797V754.781C350.339 756.521 352.458 757.917 354.156 758.969C355.844 760.021 357.531 760.984 359.219 761.859ZM351.234 745.047C349.099 745.047 347.354 744.276 346 742.734C344.635 741.182 343.953 739.177 343.953 736.719C343.953 734.354 344.568 732.427 345.797 730.938C347.016 729.448 348.573 728.703 350.469 728.703C351.146 728.703 351.802 728.807 352.438 729.016C353.062 729.214 353.693 729.536 354.328 729.984C354.953 730.422 355.521 730.865 356.031 731.312C356.531 731.76 357.141 732.344 357.859 733.062L363.156 738.562H363.25V728.391H367V744.781H363.828L355.641 736.281C354.495 735.135 353.573 734.354 352.875 733.938C352.177 733.51 351.438 733.297 350.656 733.297C349.802 733.297 349.083 733.635 348.5 734.312C347.917 734.99 347.625 735.844 347.625 736.875C347.625 737.969 347.969 738.875 348.656 739.594C349.333 740.312 350.193 740.672 351.234 740.672H351.312V745.047H351.234ZM367.516 716.469C367.516 718.094 367.161 719.552 366.453 720.844C365.734 722.125 364.703 723.161 363.359 723.953C361.432 725.214 358.948 725.844 355.906 725.844C352.188 725.844 349.266 725 347.141 723.312C345.005 721.625 343.938 719.318 343.938 716.391C343.938 714.245 344.516 712.406 345.672 710.875C346.828 709.344 348.328 708.422 350.172 708.109V712.75C349.422 712.979 348.818 713.427 348.359 714.094C347.901 714.76 347.672 715.536 347.672 716.422C347.672 718.005 348.391 719.24 349.828 720.125C351.266 721 353.25 721.411 355.781 721.359V721.266C354.667 720.807 353.776 720.047 353.109 718.984C352.443 717.922 352.109 716.682 352.109 715.266C352.109 713.12 352.818 711.344 354.234 709.938C355.641 708.521 357.411 707.812 359.547 707.812C361.87 707.812 363.781 708.625 365.281 710.25C366.771 711.875 367.516 713.948 367.516 716.469ZM363.75 716.516C363.75 715.37 363.359 714.401 362.578 713.609C361.786 712.807 360.823 712.406 359.688 712.406C358.521 712.406 357.557 712.797 356.797 713.578C356.036 714.349 355.656 715.323 355.656 716.5C355.656 717.677 356.036 718.661 356.797 719.453C357.557 720.234 358.505 720.625 359.641 720.625C360.786 720.625 361.76 720.229 362.562 719.438C363.354 718.646 363.75 717.672 363.75 716.516Z" fill="white"/>
</g>
<g data-room="В-78__Г-425">
<rect x="208" y="688" width="94" height="128" rx="12" fill="#2563EB"/>
<path  d="M266 790.422V795.156H243.453V780.625H247.359V790.422H266ZM258.828 768.828V779.094H254.844V768.828H258.828ZM266 754.531H261.984V765.75H257.969C254.469 763.917 249.63 760.901 243.453 756.703V750.047H258.203V747.109H261.984V750.047H266V754.531ZM258.219 761.609H258.344V754.438H246.797V754.531C249.339 756.271 251.458 757.667 253.156 758.719C254.844 759.771 256.531 760.734 258.219 761.609ZM250.234 744.797C248.099 744.797 246.354 744.026 245 742.484C243.635 740.932 242.953 738.927 242.953 736.469C242.953 734.104 243.568 732.177 244.797 730.688C246.016 729.198 247.573 728.453 249.469 728.453C250.146 728.453 250.802 728.557 251.438 728.766C252.062 728.964 252.693 729.286 253.328 729.734C253.953 730.172 254.521 730.615 255.031 731.062C255.531 731.51 256.141 732.094 256.859 732.812L262.156 738.312H262.25V728.141H266V744.531H262.828L254.641 736.031C253.495 734.885 252.573 734.104 251.875 733.688C251.177 733.26 250.438 733.047 249.656 733.047C248.802 733.047 248.083 733.385 247.5 734.062C246.917 734.74 246.625 735.594 246.625 736.625C246.625 737.719 246.969 738.625 247.656 739.344C248.333 740.062 249.193 740.422 250.234 740.422H250.312V744.797H250.234ZM266.5 716.547C266.5 718.964 265.854 720.964 264.562 722.547C263.26 724.12 261.589 724.943 259.547 725.016V720.656C260.505 720.521 261.281 720.073 261.875 719.312C262.469 718.542 262.766 717.609 262.766 716.516C262.766 715.286 262.38 714.286 261.609 713.516C260.828 712.734 259.823 712.344 258.594 712.344C257.344 712.344 256.323 712.729 255.531 713.5C254.74 714.271 254.344 715.266 254.344 716.484C254.344 717.339 254.531 718.115 254.906 718.812C255.271 719.5 255.776 720.042 256.422 720.438V724.656L243.453 723.547V709.203H247.203V719.844L253.375 720.359V720.266C252.604 719.797 252 719.13 251.562 718.266C251.125 717.391 250.906 716.385 250.906 715.25C250.906 713.094 251.62 711.323 253.047 709.938C254.464 708.542 256.271 707.844 258.469 707.844C260.854 707.844 262.792 708.651 264.281 710.266C265.76 711.87 266.5 713.964 266.5 716.547Z" fill="white"/>
</g>
<g data-room="В-78__Г-416">
<rect y="896" width="192" height="128" rx="12" fill="#2563EB"/>
<path  d="M59.3281 971H54.5938V948.453H69.125V952.359H59.3281V971ZM80.9219 963.828H70.6562V959.844H80.9219V963.828ZM95.2188 971V966.984H84V962.969C85.8333 959.469 88.849 954.63 93.0469 948.453H99.7031V963.203H102.641V966.984H99.7031V971H95.2188ZM88.1406 963.219V963.344H95.3125V951.797H95.2188C93.4792 954.339 92.0833 956.458 91.0312 958.156C89.9792 959.844 89.0156 961.531 88.1406 963.219ZM110.703 971V952.781H110.609L104.859 956.75V952.5L110.688 948.453H115.375V971H110.703ZM129.531 971.516C127.906 971.516 126.448 971.161 125.156 970.453C123.875 969.734 122.839 968.703 122.047 967.359C120.786 965.432 120.156 962.948 120.156 959.906C120.156 956.188 121 953.266 122.688 951.141C124.375 949.005 126.682 947.938 129.609 947.938C131.755 947.938 133.594 948.516 135.125 949.672C136.656 950.828 137.578 952.328 137.891 954.172H133.25C133.021 953.422 132.573 952.818 131.906 952.359C131.24 951.901 130.464 951.672 129.578 951.672C127.995 951.672 126.76 952.391 125.875 953.828C125 955.266 124.589 957.25 124.641 959.781H124.734C125.193 958.667 125.953 957.776 127.016 957.109C128.078 956.443 129.318 956.109 130.734 956.109C132.88 956.109 134.656 956.818 136.062 958.234C137.479 959.641 138.188 961.411 138.188 963.547C138.188 965.87 137.375 967.781 135.75 969.281C134.125 970.771 132.052 971.516 129.531 971.516ZM129.484 967.75C130.63 967.75 131.599 967.359 132.391 966.578C133.193 965.786 133.594 964.823 133.594 963.688C133.594 962.521 133.203 961.557 132.422 960.797C131.651 960.036 130.677 959.656 129.5 959.656C128.323 959.656 127.339 960.036 126.547 960.797C125.766 961.557 125.375 962.505 125.375 963.641C125.375 964.786 125.771 965.76 126.562 966.562C127.354 967.354 128.328 967.75 129.484 967.75Z" fill="white"/>
</g>
<g data-room="В-78__Г-415-2">
<rect x="328" y="896" width="192" height="128" rx="12" fill="#2563EB"/>
<path  d="M370.891 971H366.156V948.453H380.688V952.359H370.891V971ZM392.484 963.828H382.219V959.844H392.484V963.828ZM406.781 971V966.984H395.562V962.969C397.396 959.469 400.411 954.63 404.609 948.453H411.266V963.203H414.203V966.984H411.266V971H406.781ZM399.703 963.219V963.344H406.875V951.797H406.781C405.042 954.339 403.646 956.458 402.594 958.156C401.542 959.844 400.578 961.531 399.703 963.219ZM422.266 971V952.781H422.172L416.422 956.75V952.5L422.25 948.453H426.938V971H422.266ZM440.672 971.5C438.255 971.5 436.255 970.854 434.672 969.562C433.099 968.26 432.276 966.589 432.203 964.547H436.562C436.698 965.505 437.146 966.281 437.906 966.875C438.677 967.469 439.609 967.766 440.703 967.766C441.932 967.766 442.932 967.38 443.703 966.609C444.484 965.828 444.875 964.823 444.875 963.594C444.875 962.344 444.49 961.323 443.719 960.531C442.948 959.74 441.953 959.344 440.734 959.344C439.88 959.344 439.104 959.531 438.406 959.906C437.719 960.271 437.177 960.776 436.781 961.422H432.562L433.672 948.453H448.016V952.203H437.375L436.859 958.375H436.953C437.422 957.604 438.089 957 438.953 956.562C439.828 956.125 440.833 955.906 441.969 955.906C444.125 955.906 445.896 956.62 447.281 958.047C448.677 959.464 449.375 961.271 449.375 963.469C449.375 965.854 448.568 967.792 446.953 969.281C445.349 970.76 443.255 971.5 440.672 971.5ZM462.609 963.828H452.344V959.844H462.609V963.828ZM465.891 955.234C465.891 953.099 466.661 951.354 468.203 950C469.755 948.635 471.76 947.953 474.219 947.953C476.583 947.953 478.51 948.568 480 949.797C481.49 951.016 482.234 952.573 482.234 954.469C482.234 955.146 482.13 955.802 481.922 956.438C481.724 957.062 481.401 957.693 480.953 958.328C480.516 958.953 480.073 959.521 479.625 960.031C479.177 960.531 478.594 961.141 477.875 961.859L472.375 967.156V967.25H482.547V971H466.156V967.828L474.656 959.641C475.802 958.495 476.583 957.573 477 956.875C477.427 956.177 477.641 955.438 477.641 954.656C477.641 953.802 477.302 953.083 476.625 952.5C475.948 951.917 475.094 951.625 474.062 951.625C472.969 951.625 472.062 951.969 471.344 952.656C470.625 953.333 470.266 954.193 470.266 955.234V955.312H465.891V955.234Z" fill="white"/>
</g>
<g data-room="В-78__Г-411">
<rect x="960" y="896" width="192" height="128" rx="12" fill="#2563EB"/>
<path  d="M1021.94 971H1017.2V948.453H1031.73V952.359H1021.94V971ZM1043.53 963.828H1033.27V959.844H1043.53V963.828ZM1057.83 971V966.984H1046.61V962.969C1048.44 959.469 1051.46 954.63 1055.66 948.453H1062.31V963.203H1065.25V966.984H1062.31V971H1057.83ZM1050.75 963.219V963.344H1057.92V951.797H1057.83C1056.09 954.339 1054.69 956.458 1053.64 958.156C1052.59 959.844 1051.62 961.531 1050.75 963.219ZM1073.31 971V952.781H1073.22L1067.47 956.75V952.5L1073.3 948.453H1077.98V971H1073.31ZM1088.69 971V952.781H1088.59L1082.84 956.75V952.5L1088.67 948.453H1093.36V971H1088.69Z" fill="white"/>
</g>
<g data-room="В-78__Г-412">
<rect x="760" y="896" width="192" height="128" rx="12" fill="#2563EB"/>
<path  d="M819.969 971H815.234V948.453H829.766V952.359H819.969V971ZM841.562 963.828H831.297V959.844H841.562V963.828ZM855.859 971V966.984H844.641V962.969C846.474 959.469 849.49 954.63 853.688 948.453H860.344V963.203H863.281V966.984H860.344V971H855.859ZM848.781 963.219V963.344H855.953V951.797H855.859C854.12 954.339 852.724 956.458 851.672 958.156C850.62 959.844 849.656 961.531 848.781 963.219ZM871.344 971V952.781H871.25L865.5 956.75V952.5L871.328 948.453H876.016V971H871.344ZM880.812 955.234C880.812 953.099 881.583 951.354 883.125 950C884.677 948.635 886.682 947.953 889.141 947.953C891.505 947.953 893.432 948.568 894.922 949.797C896.411 951.016 897.156 952.573 897.156 954.469C897.156 955.146 897.052 955.802 896.844 956.438C896.646 957.062 896.323 957.693 895.875 958.328C895.438 958.953 894.995 959.521 894.547 960.031C894.099 960.531 893.516 961.141 892.797 961.859L887.297 967.156V967.25H897.469V971H881.078V967.828L889.578 959.641C890.724 958.495 891.505 957.573 891.922 956.875C892.349 956.177 892.562 955.438 892.562 954.656C892.562 953.802 892.224 953.083 891.547 952.5C890.87 951.917 890.016 951.625 888.984 951.625C887.891 951.625 886.984 951.969 886.266 952.656C885.547 953.333 885.188 954.193 885.188 955.234V955.312H880.812V955.234Z" fill="white"/>
</g>
<g data-room="В-78__Г-423">
<rect width="128" height="290" rx="12" fill="#2563EB"/>
<path  d="M25.5 156H20.7656V133.453H35.2969V137.359H25.5V156ZM47.0938 148.828H36.8281V144.844H47.0938V148.828ZM61.3906 156V151.984H50.1719V147.969C52.0052 144.469 55.0208 139.63 59.2188 133.453H65.875V148.203H68.8125V151.984H65.875V156H61.3906ZM54.3125 148.219V148.344H61.4844V136.797H61.3906C59.651 139.339 58.2552 141.458 57.2031 143.156C56.151 144.844 55.1875 146.531 54.3125 148.219ZM71.125 140.234C71.125 138.099 71.8958 136.354 73.4375 135C74.9896 133.635 76.9948 132.953 79.4531 132.953C81.8177 132.953 83.7448 133.568 85.2344 134.797C86.724 136.016 87.4688 137.573 87.4688 139.469C87.4688 140.146 87.3646 140.802 87.1562 141.438C86.9583 142.062 86.6354 142.693 86.1875 143.328C85.75 143.953 85.3073 144.521 84.8594 145.031C84.4115 145.531 83.8281 146.141 83.1094 146.859L77.6094 152.156V152.25H87.7812V156H71.3906V152.828L79.8906 144.641C81.0365 143.495 81.8177 142.573 82.2344 141.875C82.6615 141.177 82.875 140.438 82.875 139.656C82.875 138.802 82.5365 138.083 81.8594 137.5C81.1823 136.917 80.3281 136.625 79.2969 136.625C78.2031 136.625 77.2969 136.969 76.5781 137.656C75.8594 138.333 75.5 139.193 75.5 140.234V140.312H71.125V140.234ZM96.1875 146.156V142.75H98.9219C99.9948 142.75 100.865 142.458 101.531 141.875C102.198 141.292 102.531 140.536 102.531 139.609C102.531 138.682 102.214 137.948 101.578 137.406C100.943 136.854 100.047 136.578 98.8906 136.578C97.7969 136.578 96.9115 136.875 96.2344 137.469C95.5573 138.062 95.1875 138.854 95.125 139.844H90.7812C90.8646 137.75 91.6615 136.078 93.1719 134.828C94.6823 133.578 96.6562 132.953 99.0938 132.953C101.448 132.953 103.349 133.505 104.797 134.609C106.255 135.714 106.984 137.167 106.984 138.969C106.984 140.333 106.557 141.49 105.703 142.438C104.849 143.385 103.724 143.984 102.328 144.234V144.328C104.026 144.474 105.37 145.031 106.359 146C107.359 146.958 107.859 148.214 107.859 149.766C107.859 151.776 107.031 153.401 105.375 154.641C103.729 155.88 101.599 156.5 98.9844 156.5C96.4531 156.5 94.4062 155.865 92.8438 154.594C91.2917 153.323 90.4583 151.641 90.3438 149.547H94.8594C94.9323 150.505 95.3385 151.271 96.0781 151.844C96.8281 152.417 97.8177 152.703 99.0469 152.703C100.224 152.703 101.188 152.401 101.938 151.797C102.688 151.193 103.062 150.417 103.062 149.469C103.062 148.438 102.698 147.63 101.969 147.047C101.24 146.453 100.24 146.156 98.9688 146.156H96.1875Z" fill="white"/>
</g>
<g data-room="В-78__Г-402">
<rect x="1024" width="128" height="240" rx="12" fill="#2563EB"/>
<path  d="M1049.28 131H1044.55V108.453H1059.08V112.359H1049.28V131ZM1070.88 123.828H1060.61V119.844H1070.88V123.828ZM1085.17 131V126.984H1073.95V122.969C1075.79 119.469 1078.8 114.63 1083 108.453H1089.66V123.203H1092.59V126.984H1089.66V131H1085.17ZM1078.09 123.219V123.344H1085.27V111.797H1085.17C1083.43 114.339 1082.04 116.458 1080.98 118.156C1079.93 119.844 1078.97 121.531 1078.09 123.219ZM1110.58 128.328C1108.96 130.443 1106.74 131.5 1103.91 131.5C1101.07 131.5 1098.84 130.448 1097.22 128.344C1095.59 126.229 1094.78 123.344 1094.78 119.688C1094.78 116.052 1095.59 113.188 1097.22 111.094C1098.85 108.99 1101.08 107.938 1103.91 107.938C1106.73 107.938 1108.95 108.984 1110.58 111.078C1112.2 113.172 1113.02 116.036 1113.02 119.672C1113.02 123.318 1112.2 126.203 1110.58 128.328ZM1100.72 125.609C1101.49 127.016 1102.55 127.719 1103.91 127.719C1105.26 127.719 1106.32 127.021 1107.08 125.625C1107.84 124.219 1108.22 122.24 1108.22 119.688C1108.22 117.156 1107.83 115.198 1107.06 113.812C1106.3 112.417 1105.25 111.719 1103.91 111.719C1102.56 111.719 1101.51 112.417 1100.73 113.812C1099.96 115.208 1099.58 117.167 1099.58 119.688C1099.58 122.229 1099.96 124.203 1100.72 125.609ZM1115.5 115.234C1115.5 113.099 1116.27 111.354 1117.81 110C1119.36 108.635 1121.37 107.953 1123.83 107.953C1126.19 107.953 1128.12 108.568 1129.61 109.797C1131.1 111.016 1131.84 112.573 1131.84 114.469C1131.84 115.146 1131.74 115.802 1131.53 116.438C1131.33 117.062 1131.01 117.693 1130.56 118.328C1130.12 118.953 1129.68 119.521 1129.23 120.031C1128.79 120.531 1128.2 121.141 1127.48 121.859L1121.98 127.156V127.25H1132.16V131H1115.77V127.828L1124.27 119.641C1125.41 118.495 1126.19 117.573 1126.61 116.875C1127.04 116.177 1127.25 115.438 1127.25 114.656C1127.25 113.802 1126.91 113.083 1126.23 112.5C1125.56 111.917 1124.7 111.625 1123.67 111.625C1122.58 111.625 1121.67 111.969 1120.95 112.656C1120.23 113.333 1119.88 114.193 1119.88 115.234V115.312H1115.5V115.234Z" fill="white"/>
</g>
<g data-room="В-78__Г-424-1">
<rect x="208" width="128" height="218" rx="12" fill="#2563EB"/>
<path  d="M219 120H214.266V97.4531H228.797V101.359H219V120ZM240.594 112.828H230.328V108.844H240.594V112.828ZM254.891 120V115.984H243.672V111.969C245.505 108.469 248.521 103.63 252.719 97.4531H259.375V112.203H262.312V115.984H259.375V120H254.891ZM247.812 112.219V112.344H254.984V100.797H254.891C253.151 103.339 251.755 105.458 250.703 107.156C249.651 108.844 248.688 110.531 247.812 112.219ZM264.625 104.234C264.625 102.099 265.396 100.354 266.938 99C268.49 97.6354 270.495 96.9531 272.953 96.9531C275.318 96.9531 277.245 97.5677 278.734 98.7969C280.224 100.016 280.969 101.573 280.969 103.469C280.969 104.146 280.865 104.802 280.656 105.438C280.458 106.062 280.135 106.693 279.688 107.328C279.25 107.953 278.807 108.521 278.359 109.031C277.911 109.531 277.328 110.141 276.609 110.859L271.109 116.156V116.25H281.281V120H264.891V116.828L273.391 108.641C274.536 107.495 275.318 106.573 275.734 105.875C276.161 105.177 276.375 104.438 276.375 103.656C276.375 102.802 276.036 102.083 275.359 101.5C274.682 100.917 273.828 100.625 272.797 100.625C271.703 100.625 270.797 100.969 270.078 101.656C269.359 102.333 269 103.193 269 104.234V104.312H264.625V104.234ZM294.547 120V115.984H283.328V111.969C285.161 108.469 288.177 103.63 292.375 97.4531H299.031V112.203H301.969V115.984H299.031V120H294.547ZM287.469 112.219V112.344H294.641V100.797H294.547C292.807 103.339 291.411 105.458 290.359 107.156C289.307 108.844 288.344 110.531 287.469 112.219ZM315.156 112.828H304.891V108.844H315.156V112.828ZM323.625 120V101.781H323.531L317.781 105.75V101.5L323.609 97.4531H328.297V120H323.625Z" fill="white"/>
</g>
<g data-room="В-78__Г-401">
<rect x="632" width="312" height="290" rx="12" fill="#2563EB"/>
<path  d="M751.25 156H746.516V133.453H761.047V137.359H751.25V156ZM772.844 148.828H762.578V144.844H772.844V148.828ZM787.141 156V151.984H775.922V147.969C777.755 144.469 780.771 139.63 784.969 133.453H791.625V148.203H794.562V151.984H791.625V156H787.141ZM780.062 148.219V148.344H787.234V136.797H787.141C785.401 139.339 784.005 141.458 782.953 143.156C781.901 144.844 780.938 146.531 780.062 148.219ZM812.547 153.328C810.932 155.443 808.708 156.5 805.875 156.5C803.042 156.5 800.812 155.448 799.188 153.344C797.562 151.229 796.75 148.344 796.75 144.688C796.75 141.052 797.562 138.188 799.188 136.094C800.823 133.99 803.052 132.938 805.875 132.938C808.698 132.938 810.922 133.984 812.547 136.078C814.172 138.172 814.984 141.036 814.984 144.672C814.984 148.318 814.172 151.203 812.547 153.328ZM802.688 150.609C803.458 152.016 804.521 152.719 805.875 152.719C807.229 152.719 808.286 152.021 809.047 150.625C809.807 149.219 810.188 147.24 810.188 144.688C810.188 142.156 809.802 140.198 809.031 138.812C808.271 137.417 807.219 136.719 805.875 136.719C804.531 136.719 803.474 137.417 802.703 138.812C801.932 140.208 801.547 142.167 801.547 144.688C801.547 147.229 801.927 149.203 802.688 150.609ZM823.375 156V137.781H823.281L817.531 141.75V137.5L823.359 133.453H828.047V156H823.375Z" fill="white"/>
</g>
<g data-room="В-78__Г-414">
<rect x="528" y="896" width="120" height="128" rx="12" fill="#2563EB"/>
<path  d="M551.25 971H546.516V948.453H561.047V952.359H551.25V971ZM572.844 963.828H562.578V959.844H572.844V963.828ZM587.141 971V966.984H575.922V962.969C577.755 959.469 580.771 954.63 584.969 948.453H591.625V963.203H594.562V966.984H591.625V971H587.141ZM580.062 963.219V963.344H587.234V951.797H587.141C585.401 954.339 584.005 956.458 582.953 958.156C581.901 959.844 580.938 961.531 580.062 963.219ZM602.625 971V952.781H602.531L596.781 956.75V952.5L602.609 948.453H607.297V971H602.625ZM623.109 971V966.984H611.891V962.969C613.724 959.469 616.74 954.63 620.938 948.453H627.594V963.203H630.531V966.984H627.594V971H623.109ZM616.031 963.219V963.344H623.203V951.797H623.109C621.37 954.339 619.974 956.458 618.922 958.156C617.87 959.844 616.906 961.531 616.031 963.219Z" fill="white"/>
</g>
<g data-room="В-78__Г-413">
<rect x="656" y="896" width="96" height="128" rx="12" fill="#2563EB"/>
<path  d="M715 996.453V1001.19H692.453V986.656H696.359V996.453H715ZM707.828 974.859V985.125H703.844V974.859H707.828ZM715 960.562H710.984V971.781H706.969C703.469 969.948 698.63 966.932 692.453 962.734V956.078H707.203V953.141H710.984V956.078H715V960.562ZM707.219 967.641H707.344V960.469H695.797V960.562C698.339 962.302 700.458 963.698 702.156 964.75C703.844 965.802 705.531 966.766 707.219 967.641ZM715 945.078H696.781V945.172L700.75 950.922H696.5L692.453 945.094V940.406H715V945.078ZM705.156 929.859H701.75V927.125C701.75 926.052 701.458 925.182 700.875 924.516C700.292 923.849 699.536 923.516 698.609 923.516C697.682 923.516 696.948 923.833 696.406 924.469C695.854 925.104 695.578 926 695.578 927.156C695.578 928.25 695.875 929.135 696.469 929.812C697.062 930.49 697.854 930.859 698.844 930.922V935.266C696.75 935.182 695.078 934.385 693.828 932.875C692.578 931.365 691.953 929.391 691.953 926.953C691.953 924.599 692.505 922.698 693.609 921.25C694.714 919.792 696.167 919.062 697.969 919.062C699.333 919.062 700.49 919.49 701.438 920.344C702.385 921.198 702.984 922.323 703.234 923.719H703.328C703.474 922.021 704.031 920.677 705 919.688C705.958 918.688 707.214 918.188 708.766 918.188C710.776 918.188 712.401 919.016 713.641 920.672C714.88 922.318 715.5 924.448 715.5 927.062C715.5 929.594 714.865 931.641 713.594 933.203C712.323 934.755 710.641 935.589 708.547 935.703V931.188C709.505 931.115 710.271 930.708 710.844 929.969C711.417 929.219 711.703 928.229 711.703 927C711.703 925.823 711.401 924.859 710.797 924.109C710.193 923.359 709.417 922.984 708.469 922.984C707.438 922.984 706.63 923.349 706.047 924.078C705.453 924.807 705.156 925.807 705.156 927.078V929.859Z" fill="white"/>
</g>
<g data-room="В-78__Г-415">
<rect x="200" y="896" width="120" height="128" rx="12" fill="#2563EB"/>
<path  d="M223.625 971H218.891V948.453H233.422V952.359H223.625V971ZM245.219 963.828H234.953V959.844H245.219V963.828ZM259.516 971V966.984H248.297V962.969C250.13 959.469 253.146 954.63 257.344 948.453H264V963.203H266.938V966.984H264V971H259.516ZM252.438 963.219V963.344H259.609V951.797H259.516C257.776 954.339 256.38 956.458 255.328 958.156C254.276 959.844 253.312 961.531 252.438 963.219ZM275 971V952.781H274.906L269.156 956.75V952.5L274.984 948.453H279.672V971H275ZM293.406 971.5C290.99 971.5 288.99 970.854 287.406 969.562C285.833 968.26 285.01 966.589 284.938 964.547H289.297C289.432 965.505 289.88 966.281 290.641 966.875C291.411 967.469 292.344 967.766 293.438 967.766C294.667 967.766 295.667 967.38 296.438 966.609C297.219 965.828 297.609 964.823 297.609 963.594C297.609 962.344 297.224 961.323 296.453 960.531C295.682 959.74 294.688 959.344 293.469 959.344C292.615 959.344 291.839 959.531 291.141 959.906C290.453 960.271 289.911 960.776 289.516 961.422H285.297L286.406 948.453H300.75V952.203H290.109L289.594 958.375H289.688C290.156 957.604 290.823 957 291.688 956.562C292.562 956.125 293.568 955.906 294.703 955.906C296.859 955.906 298.63 956.62 300.016 958.047C301.411 959.464 302.109 961.271 302.109 963.469C302.109 965.854 301.302 967.792 299.688 969.281C298.083 970.76 295.99 971.5 293.406 971.5Z" fill="white"/>
</g>
<g data-room="В-78__Г-429">
<rect x="778" y="688" width="50" height="128" rx="12" fill="#2563EB"/>
<path  d="M814 790.75V795.484H791.453V780.953H795.359V790.75H814ZM806.828 769.156V779.422H802.844V769.156H806.828ZM814 754.859H809.984V766.078H805.969C802.469 764.245 797.63 761.229 791.453 757.031V750.375H806.203V747.438H809.984V750.375H814V754.859ZM806.219 761.938H806.344V754.766H794.797V754.859C797.339 756.599 799.458 757.995 801.156 759.047C802.844 760.099 804.531 761.062 806.219 761.938ZM798.234 745.125C796.099 745.125 794.354 744.354 793 742.812C791.635 741.26 790.953 739.255 790.953 736.797C790.953 734.432 791.568 732.505 792.797 731.016C794.016 729.526 795.573 728.781 797.469 728.781C798.146 728.781 798.802 728.885 799.438 729.094C800.062 729.292 800.693 729.615 801.328 730.062C801.953 730.5 802.521 730.943 803.031 731.391C803.531 731.839 804.141 732.422 804.859 733.141L810.156 738.641H810.25V728.469H814V744.859H810.828L802.641 736.359C801.495 735.214 800.573 734.432 799.875 734.016C799.177 733.589 798.438 733.375 797.656 733.375C796.802 733.375 796.083 733.714 795.5 734.391C794.917 735.068 794.625 735.922 794.625 736.953C794.625 738.047 794.969 738.953 795.656 739.672C796.333 740.391 797.193 740.75 798.234 740.75H798.312V745.125H798.234ZM814.5 717.281C814.5 719.438 813.922 721.286 812.766 722.828C811.599 724.37 810.094 725.297 808.25 725.609V720.953C809.01 720.724 809.62 720.271 810.078 719.594C810.536 718.906 810.766 718.109 810.766 717.203C810.766 715.63 810.052 714.411 808.625 713.547C807.198 712.672 805.203 712.266 802.641 712.328V712.375V712.406V712.422C803.766 712.839 804.661 713.578 805.328 714.641C805.995 715.703 806.328 716.964 806.328 718.422C806.328 720.557 805.625 722.339 804.219 723.766C802.802 725.193 801.026 725.906 798.891 725.906C796.578 725.906 794.677 725.089 793.188 723.453C791.688 721.818 790.938 719.74 790.938 717.219C790.938 715.583 791.292 714.12 792 712.828C792.708 711.526 793.729 710.484 795.062 709.703C797 708.443 799.49 707.812 802.531 707.812C806.271 707.812 809.203 708.651 811.328 710.328C813.443 711.995 814.5 714.312 814.5 717.281ZM801.641 720.125C802.401 719.344 802.781 718.365 802.781 717.188C802.781 716.01 802.401 715.031 801.641 714.25C800.87 713.458 799.917 713.062 798.781 713.062C797.635 713.062 796.672 713.458 795.891 714.25C795.099 715.042 794.703 716.01 794.703 717.156C794.703 718.312 795.094 719.292 795.875 720.094C796.656 720.896 797.615 721.297 798.75 721.297C799.906 721.297 800.87 720.906 801.641 720.125Z" fill="white"/>
</g>
<rect  x="828" y="784" width="16" height="8" transform="rotate(-90 828 784)" fill="#DADADA"/>
<rect  x="886" y="784" width="16" height="8" transform="rotate(-90 886 784)" fill="#DADADA"/>
<g >
<rect x="512" y="648" width="128" height="168" rx="12" fill="white"/>
<g >
<path  d="M598.455 715H590.962V722.5C590.962 722.625 590.946 722.719 590.915 722.781C590.853 723.125 590.689 723.414 590.423 723.648C590.158 723.883 589.838 724 589.463 724H581.971V731.5C581.971 731.625 581.955 731.719 581.924 731.781C581.861 732.125 581.698 732.414 581.432 732.648C581.167 732.883 580.847 733 580.472 733H572.98V740.5C572.98 740.625 572.964 740.719 572.933 740.781C572.87 741.125 572.706 741.414 572.441 741.648C572.176 741.883 571.856 742 571.481 742H563.988V749.5C563.988 749.625 563.973 749.719 563.941 749.781C563.879 750.125 563.715 750.414 563.45 750.648C563.184 750.883 562.864 751 562.49 751H553.499C553.093 751 552.741 750.852 552.445 750.555C552.148 750.258 552 749.906 552 749.5C552 749.094 552.148 748.742 552.445 748.445C552.741 748.148 553.093 748 553.499 748H560.991V740.5C560.991 740.375 561.007 740.281 561.038 740.219C561.1 739.875 561.272 739.586 561.553 739.352C561.834 739.117 562.146 739 562.49 739H569.982V731.5C569.982 731.375 569.998 731.281 570.029 731.219C570.092 730.875 570.263 730.586 570.544 730.352C570.825 730.117 571.138 730 571.481 730H578.974V722.5C578.974 722.406 578.989 722.313 579.02 722.219C579.083 721.875 579.255 721.586 579.536 721.352C579.817 721.117 580.129 721 580.472 721H587.965V713.5C587.965 713.375 587.98 713.281 588.012 713.219C588.074 712.875 588.238 712.586 588.503 712.352C588.769 712.117 589.089 712 589.463 712H598.455C598.86 712 599.212 712.148 599.508 712.445C599.805 712.742 599.953 713.094 599.953 713.5C599.953 713.906 599.805 714.258 599.508 714.555C599.212 714.852 598.86 715 598.455 715Z" fill="black"/>
</g>
</g>
<g >
<rect x="648" y="688" width="64" height="128" rx="12" fill="#60A5FA"/>
<g >
<path  d="M680 725.333C679.647 725.333 679.307 725.473 679.057 725.723C678.807 725.973 678.667 726.312 678.667 726.666V730.666C678.667 731.02 678.807 731.359 679.057 731.609C679.307 731.859 679.647 731.999 680 731.999C680.354 731.999 680.693 731.859 680.943 731.609C681.193 731.359 681.333 731.02 681.333 730.666V726.666C681.333 726.312 681.193 725.973 680.943 725.723C680.693 725.473 680.354 725.333 680 725.333ZM686.667 719.999V717.333C686.667 715.565 685.964 713.869 684.714 712.619C683.464 711.368 681.768 710.666 680 710.666C678.232 710.666 676.536 711.368 675.286 712.619C674.036 713.869 673.333 715.565 673.333 717.333V719.999C672.273 719.999 671.255 720.421 670.505 721.171C669.755 721.921 669.333 722.938 669.333 723.999V733.333C669.333 734.394 669.755 735.411 670.505 736.161C671.255 736.911 672.273 737.333 673.333 737.333H686.667C687.728 737.333 688.745 736.911 689.495 736.161C690.245 735.411 690.667 734.394 690.667 733.333V723.999C690.667 722.938 690.245 721.921 689.495 721.171C688.745 720.421 687.728 719.999 686.667 719.999ZM676 717.333C676 716.272 676.422 715.254 677.172 714.504C677.922 713.754 678.939 713.333 680 713.333C681.061 713.333 682.078 713.754 682.829 714.504C683.579 715.254 684 716.272 684 717.333V719.999H676V717.333ZM688 733.333C688 733.686 687.86 734.025 687.61 734.275C687.36 734.526 687.02 734.666 686.667 734.666H673.333C672.98 734.666 672.641 734.526 672.391 734.275C672.141 734.025 672 733.686 672 733.333V723.999C672 723.646 672.141 723.307 672.391 723.057C672.641 722.806 672.98 722.666 673.333 722.666H686.667C687.02 722.666 687.36 722.806 687.61 723.057C687.86 723.307 688 723.646 688 723.999V733.333Z" fill="white"/>
</g>
<g >
<g >
<path  d="M666 758.5C668.899 758.5 671.25 756.149 671.25 753.25C671.25 750.351 668.899 748 666 748C663.101 748 660.75 750.351 660.75 753.25C660.75 756.149 663.101 758.5 666 758.5Z" fill="white"/>
<path  d="M670.5 760H661.5C659.91 760.005 658.387 760.638 657.263 761.763C656.138 762.887 655.505 764.41 655.5 766V776.08C655.5 777.097 656.29 777.962 657.307 777.999C657.558 778.008 657.81 777.967 658.045 777.877C658.28 777.787 658.495 777.65 658.677 777.475C658.858 777.3 659.002 777.09 659.101 776.858C659.199 776.626 659.25 776.377 659.25 776.125V766.775C659.248 766.582 659.318 766.395 659.448 766.251C659.578 766.108 659.758 766.019 659.95 766.002C660.053 765.995 660.156 766.009 660.253 766.044C660.349 766.079 660.438 766.133 660.513 766.203C660.588 766.274 660.648 766.359 660.689 766.453C660.729 766.547 660.75 766.649 660.75 766.752V793.844C660.75 794.416 660.977 794.964 661.382 795.368C661.786 795.773 662.334 796 662.906 796C663.478 796 664.027 795.773 664.431 795.368C664.835 794.964 665.062 794.416 665.062 793.844V780.469C665.059 780.227 665.147 779.993 665.31 779.813C665.472 779.633 665.696 779.521 665.937 779.5C666.065 779.491 666.194 779.509 666.315 779.552C666.436 779.596 666.547 779.663 666.641 779.751C666.735 779.839 666.81 779.946 666.861 780.064C666.912 780.182 666.938 780.309 666.938 780.438V793.844C666.938 794.416 667.165 794.964 667.569 795.368C667.973 795.773 668.522 796 669.094 796C669.666 796 670.214 795.773 670.618 795.368C671.023 794.964 671.25 794.416 671.25 793.844V766.775C671.248 766.582 671.318 766.395 671.448 766.251C671.578 766.108 671.758 766.019 671.95 766.002C672.053 765.995 672.156 766.009 672.253 766.044C672.349 766.079 672.438 766.133 672.513 766.203C672.588 766.274 672.648 766.359 672.689 766.453C672.729 766.547 672.75 766.649 672.75 766.752V776.082C672.75 777.099 673.54 777.964 674.557 778.001C674.809 778.01 675.06 777.968 675.295 777.878C675.531 777.788 675.746 777.651 675.927 777.476C676.109 777.301 676.253 777.091 676.351 776.859C676.45 776.627 676.5 776.377 676.5 776.125V766C676.495 764.41 675.862 762.887 674.737 761.763C673.613 760.638 672.09 760.005 670.5 760Z" fill="white"/>
</g>
<g  clip-path="url(#clip0_906_333)">
<path  d="M693.977 758.5C696.876 758.5 699.227 756.149 699.227 753.25C699.227 750.351 696.876 748 693.977 748C691.077 748 688.727 750.351 688.727 753.25C688.727 756.149 691.077 758.5 693.977 758.5Z" fill="white"/>
<path  d="M706.996 774.054L706.028 770.828V770.818L703.922 763.8H703.918L703.682 763.008C703.424 762.139 702.892 761.377 702.166 760.835C701.439 760.293 700.557 760 699.651 760H688.401C687.495 760 686.613 760.292 685.886 760.834C685.16 761.376 684.628 762.139 684.37 763.008L684.135 763.8H684.129L682.023 770.818V770.828L681.051 774.054C680.759 775.028 681.267 776.085 682.23 776.411C682.468 776.492 682.721 776.524 682.972 776.506C683.223 776.487 683.468 776.418 683.692 776.303C683.916 776.188 684.115 776.028 684.276 775.835C684.437 775.641 684.557 775.417 684.63 775.175L687.028 767.183L687.231 766.505C687.291 766.34 687.406 766.2 687.558 766.111C687.71 766.022 687.888 765.99 688.062 766.019C688.235 766.048 688.393 766.138 688.507 766.271C688.622 766.405 688.685 766.575 688.687 766.751C688.687 766.802 688.682 766.852 688.671 766.902L684.571 780.57C684.504 780.794 684.49 781.03 684.531 781.261C684.571 781.491 684.665 781.708 684.804 781.896C684.944 782.084 685.125 782.236 685.334 782.341C685.543 782.446 685.774 782.501 686.008 782.501H688.726V793.253C688.726 794.796 689.714 796.001 690.976 796.001C692.239 796.001 693.226 794.796 693.226 793.253V782.501H694.726V793.253C694.726 794.796 695.714 796.001 696.976 796.001C698.239 796.001 699.226 794.796 699.226 793.253V782.501H702.039C702.273 782.501 702.504 782.446 702.713 782.341C702.922 782.236 703.103 782.084 703.243 781.896C703.382 781.709 703.476 781.491 703.517 781.261C703.557 781.03 703.543 780.794 703.476 780.57L699.376 766.9C699.365 766.851 699.36 766.801 699.361 766.751C699.361 766.574 699.425 766.404 699.539 766.269C699.653 766.135 699.811 766.045 699.985 766.016C700.159 765.986 700.338 766.019 700.49 766.108C700.643 766.198 700.758 766.338 700.817 766.504L701.021 767.182L703.418 775.174C703.491 775.415 703.611 775.639 703.772 775.833C703.934 776.026 704.132 776.185 704.356 776.3C704.58 776.415 704.825 776.484 705.076 776.502C705.327 776.521 705.579 776.488 705.817 776.407C706.78 776.085 707.288 775.028 706.996 774.054Z" fill="white"/>
</g>
</g>
</g>
<g data-room="В-78__Г-417">
<rect y="824" width="128" height="64" rx="12" fill="#2563EB"/>
<path  d="M28.4688 867H23.7344V844.453H38.2656V848.359H28.4688V867ZM50.0625 859.828H39.7969V855.844H50.0625V859.828ZM64.3594 867V862.984H53.1406V858.969C54.974 855.469 57.9896 850.63 62.1875 844.453H68.8438V859.203H71.7812V862.984H68.8438V867H64.3594ZM57.2812 859.219V859.344H64.4531V847.797H64.3594C62.6198 850.339 61.224 852.458 60.1719 854.156C59.1198 855.844 58.1562 857.531 57.2812 859.219ZM79.8438 867V848.781H79.75L74 852.75V848.5L79.8281 844.453H84.5156V867H79.8438ZM90.75 867L100.453 848.297V848.203H88.9844V844.453H105.109V848.25L95.7031 867H90.75Z" fill="white"/>
</g>
<g data-room="В-78__Г-418">
<rect y="752" width="128" height="64" rx="12" fill="#2563EB"/>
<path  d="M27.1875 795H22.4531V772.453H36.9844V776.359H27.1875V795ZM48.7812 787.828H38.5156V783.844H48.7812V787.828ZM63.0781 795V790.984H51.8594V786.969C53.6927 783.469 56.7083 778.63 60.9062 772.453H67.5625V787.203H70.5V790.984H67.5625V795H63.0781ZM56 787.219V787.344H63.1719V775.797H63.0781C61.3385 778.339 59.9427 780.458 58.8906 782.156C57.8385 783.844 56.875 785.531 56 787.219ZM78.5625 795V776.781H78.4688L72.7188 780.75V776.5L78.5469 772.453H83.2344V795H78.5625ZM97.1406 795.5C94.4115 795.5 92.2031 794.891 90.5156 793.672C88.8385 792.443 88 790.849 88 788.891C88 787.411 88.4896 786.146 89.4688 785.094C90.4479 784.031 91.724 783.37 93.2969 783.109V783.016C91.9844 782.714 90.9219 782.099 90.1094 781.172C89.3073 780.234 88.9062 779.146 88.9062 777.906C88.9062 776.177 89.6771 774.755 91.2188 773.641C92.7604 772.516 94.7344 771.953 97.1406 771.953C99.5573 771.953 101.531 772.516 103.062 773.641C104.594 774.755 105.359 776.182 105.359 777.922C105.359 779.141 104.958 780.219 104.156 781.156C103.354 782.083 102.297 782.703 100.984 783.016V783.109C102.568 783.38 103.844 784.047 104.812 785.109C105.792 786.161 106.281 787.427 106.281 788.906C106.281 790.865 105.432 792.453 103.734 793.672C102.047 794.891 99.849 795.5 97.1406 795.5ZM94.0938 791.078C94.8854 791.734 95.901 792.062 97.1406 792.062C98.3802 792.062 99.3906 791.734 100.172 791.078C100.953 790.411 101.344 789.568 101.344 788.547C101.344 787.526 100.953 786.688 100.172 786.031C99.3906 785.365 98.3802 785.031 97.1406 785.031C95.901 785.031 94.8854 785.365 94.0938 786.031C93.3125 786.688 92.9219 787.526 92.9219 788.547C92.9219 789.568 93.3125 790.411 94.0938 791.078ZM94.5781 780.719C95.2448 781.302 96.099 781.594 97.1406 781.594C98.1823 781.594 99.0365 781.302 99.7031 780.719C100.37 780.125 100.703 779.38 100.703 778.484C100.703 777.578 100.37 776.833 99.7031 776.25C99.0365 775.656 98.1823 775.359 97.1406 775.359C96.099 775.359 95.2448 775.656 94.5781 776.25C93.9115 776.833 93.5781 777.578 93.5781 778.484C93.5781 779.391 93.9115 780.135 94.5781 780.719Z" fill="white"/>
</g>
<g data-room="В-78__Г-419">
<rect y="680" width="128" height="64" rx="12" fill="#2563EB"/>
<path  d="M27.3438 723H22.6094V700.453H37.1406V704.359H27.3438V723ZM48.9375 715.828H38.6719V711.844H48.9375V715.828ZM63.2344 723V718.984H52.0156V714.969C53.849 711.469 56.8646 706.63 61.0625 700.453H67.7188V715.203H70.6562V718.984H67.7188V723H63.2344ZM56.1562 715.219V715.344H63.3281V703.797H63.2344C61.4948 706.339 60.099 708.458 59.0469 710.156C57.9948 711.844 57.0312 713.531 56.1562 715.219ZM78.7188 723V704.781H78.625L72.875 708.75V704.5L78.7031 700.453H83.3906V723H78.7188ZM96.625 723.5C94.4688 723.5 92.6198 722.922 91.0781 721.766C89.5365 720.599 88.6094 719.094 88.2969 717.25H92.9531C93.1823 718.01 93.6354 718.62 94.3125 719.078C95 719.536 95.7969 719.766 96.7031 719.766C98.276 719.766 99.4948 719.052 100.359 717.625C101.234 716.198 101.641 714.203 101.578 711.641H101.531H101.5H101.484C101.068 712.766 100.328 713.661 99.2656 714.328C98.2031 714.995 96.9427 715.328 95.4844 715.328C93.349 715.328 91.5677 714.625 90.1406 713.219C88.7135 711.802 88 710.026 88 707.891C88 705.578 88.8177 703.677 90.4531 702.188C92.0885 700.688 94.1667 699.938 96.6875 699.938C98.3229 699.938 99.7865 700.292 101.078 701C102.38 701.708 103.422 702.729 104.203 704.062C105.464 706 106.094 708.49 106.094 711.531C106.094 715.271 105.255 718.203 103.578 720.328C101.911 722.443 99.5938 723.5 96.625 723.5ZM93.7812 710.641C94.5625 711.401 95.5417 711.781 96.7188 711.781C97.8958 711.781 98.875 711.401 99.6562 710.641C100.448 709.87 100.844 708.917 100.844 707.781C100.844 706.635 100.448 705.672 99.6562 704.891C98.8646 704.099 97.8958 703.703 96.75 703.703C95.5938 703.703 94.6146 704.094 93.8125 704.875C93.0104 705.656 92.6094 706.615 92.6094 707.75C92.6094 708.906 93 709.87 93.7812 710.641Z" fill="white"/>
</g>
<g data-room="В-78__Г-420">
<rect y="608" width="128" height="64" rx="12" fill="#2563EB"/>
<path  d="M25.2031 651H20.4688V628.453H35V632.359H25.2031V651ZM46.7969 643.828H36.5312V639.844H46.7969V643.828ZM61.0938 651V646.984H49.875V642.969C51.7083 639.469 54.724 634.63 58.9219 628.453H65.5781V643.203H68.5156V646.984H65.5781V651H61.0938ZM54.0156 643.219V643.344H61.1875V631.797H61.0938C59.3542 634.339 57.9583 636.458 56.9062 638.156C55.8542 639.844 54.8906 641.531 54.0156 643.219ZM70.8281 635.234C70.8281 633.099 71.599 631.354 73.1406 630C74.6927 628.635 76.6979 627.953 79.1562 627.953C81.5208 627.953 83.4479 628.568 84.9375 629.797C86.4271 631.016 87.1719 632.573 87.1719 634.469C87.1719 635.146 87.0677 635.802 86.8594 636.438C86.6615 637.062 86.3385 637.693 85.8906 638.328C85.4531 638.953 85.0104 639.521 84.5625 640.031C84.1146 640.531 83.5312 641.141 82.8125 641.859L77.3125 647.156V647.25H87.4844V651H71.0938V647.828L79.5938 639.641C80.7396 638.495 81.5208 637.573 81.9375 636.875C82.3646 636.177 82.5781 635.438 82.5781 634.656C82.5781 633.802 82.2396 633.083 81.5625 632.5C80.8854 631.917 80.0312 631.625 79 631.625C77.9062 631.625 77 631.969 76.2812 632.656C75.5625 633.333 75.2031 634.193 75.2031 635.234V635.312H70.8281V635.234ZM105.812 648.328C104.198 650.443 101.974 651.5 99.1406 651.5C96.3073 651.5 94.0781 650.448 92.4531 648.344C90.8281 646.229 90.0156 643.344 90.0156 639.688C90.0156 636.052 90.8281 633.188 92.4531 631.094C94.0885 628.99 96.3177 627.938 99.1406 627.938C101.964 627.938 104.188 628.984 105.812 631.078C107.438 633.172 108.25 636.036 108.25 639.672C108.25 643.318 107.438 646.203 105.812 648.328ZM95.9531 645.609C96.724 647.016 97.7865 647.719 99.1406 647.719C100.495 647.719 101.552 647.021 102.312 645.625C103.073 644.219 103.453 642.24 103.453 639.688C103.453 637.156 103.068 635.198 102.297 633.812C101.536 632.417 100.484 631.719 99.1406 631.719C97.7969 631.719 96.7396 632.417 95.9688 633.812C95.1979 635.208 94.8125 637.167 94.8125 639.688C94.8125 642.229 95.1927 644.203 95.9531 645.609Z" fill="white"/>
</g>
<g data-room="В-78__Г-421">
<rect y="442" width="128" height="64" rx="12" fill="#2563EB"/>
<path  d="M27.8906 485H23.1562V462.453H37.6875V466.359H27.8906V485ZM49.4844 477.828H39.2188V473.844H49.4844V477.828ZM63.7812 485V480.984H52.5625V476.969C54.3958 473.469 57.4115 468.63 61.6094 462.453H68.2656V477.203H71.2031V480.984H68.2656V485H63.7812ZM56.7031 477.219V477.344H63.875V465.797H63.7812C62.0417 468.339 60.6458 470.458 59.5938 472.156C58.5417 473.844 57.5781 475.531 56.7031 477.219ZM73.5156 469.234C73.5156 467.099 74.2865 465.354 75.8281 464C77.3802 462.635 79.3854 461.953 81.8438 461.953C84.2083 461.953 86.1354 462.568 87.625 463.797C89.1146 465.016 89.8594 466.573 89.8594 468.469C89.8594 469.146 89.7552 469.802 89.5469 470.438C89.349 471.062 89.026 471.693 88.5781 472.328C88.1406 472.953 87.6979 473.521 87.25 474.031C86.8021 474.531 86.2188 475.141 85.5 475.859L80 481.156V481.25H90.1719V485H73.7812V481.828L82.2812 473.641C83.4271 472.495 84.2083 471.573 84.625 470.875C85.0521 470.177 85.2656 469.438 85.2656 468.656C85.2656 467.802 84.9271 467.083 84.25 466.5C83.5729 465.917 82.7188 465.625 81.6875 465.625C80.5938 465.625 79.6875 465.969 78.9688 466.656C78.25 467.333 77.8906 468.193 77.8906 469.234V469.312H73.5156V469.234ZM98.7344 485V466.781H98.6406L92.8906 470.75V466.5L98.7188 462.453H103.406V485H98.7344Z" fill="white"/>
</g>
<g data-room="В-78__Г-422">
<rect y="370" width="128" height="64" rx="12" fill="#2563EB"/>
<path  d="M25.9219 413H21.1875V390.453H35.7188V394.359H25.9219V413ZM47.5156 405.828H37.25V401.844H47.5156V405.828ZM61.8125 413V408.984H50.5938V404.969C52.4271 401.469 55.4427 396.63 59.6406 390.453H66.2969V405.203H69.2344V408.984H66.2969V413H61.8125ZM54.7344 405.219V405.344H61.9062V393.797H61.8125C60.0729 396.339 58.6771 398.458 57.625 400.156C56.5729 401.844 55.6094 403.531 54.7344 405.219ZM71.5469 397.234C71.5469 395.099 72.3177 393.354 73.8594 392C75.4115 390.635 77.4167 389.953 79.875 389.953C82.2396 389.953 84.1667 390.568 85.6562 391.797C87.1458 393.016 87.8906 394.573 87.8906 396.469C87.8906 397.146 87.7865 397.802 87.5781 398.438C87.3802 399.062 87.0573 399.693 86.6094 400.328C86.1719 400.953 85.7292 401.521 85.2812 402.031C84.8333 402.531 84.25 403.141 83.5312 403.859L78.0312 409.156V409.25H88.2031V413H71.8125V409.828L80.3125 401.641C81.4583 400.495 82.2396 399.573 82.6562 398.875C83.0833 398.177 83.2969 397.438 83.2969 396.656C83.2969 395.802 82.9583 395.083 82.2812 394.5C81.6042 393.917 80.75 393.625 79.7188 393.625C78.625 393.625 77.7188 393.969 77 394.656C76.2812 395.333 75.9219 396.193 75.9219 397.234V397.312H71.5469V397.234ZM90.8594 397.234C90.8594 395.099 91.6302 393.354 93.1719 392C94.724 390.635 96.7292 389.953 99.1875 389.953C101.552 389.953 103.479 390.568 104.969 391.797C106.458 393.016 107.203 394.573 107.203 396.469C107.203 397.146 107.099 397.802 106.891 398.438C106.693 399.062 106.37 399.693 105.922 400.328C105.484 400.953 105.042 401.521 104.594 402.031C104.146 402.531 103.562 403.141 102.844 403.859L97.3438 409.156V409.25H107.516V413H91.125V409.828L99.625 401.641C100.771 400.495 101.552 399.573 101.969 398.875C102.396 398.177 102.609 397.438 102.609 396.656C102.609 395.802 102.271 395.083 101.594 394.5C100.917 393.917 100.062 393.625 99.0312 393.625C97.9375 393.625 97.0312 393.969 96.3125 394.656C95.5938 395.333 95.2344 396.193 95.2344 397.234V397.312H90.8594V397.234Z" fill="white"/>
</g>
<g data-room="В-78__Г-420-1">
<rect y="514" width="128" height="86" rx="12" fill="#2563EB"/>
<path  d="M23.1977 565.5H19.6469V548.59H30.5453V551.52H23.1977V565.5ZM39.693 560.121H31.9937V557.133H39.693V560.121ZM50.7156 565.5V562.488H42.3016V559.477C43.6766 556.852 45.9383 553.223 49.0867 548.59H54.0789V559.652H56.282V562.488H54.0789V565.5H50.7156ZM45.407 559.664V559.758H50.7859V551.098H50.7156C49.4109 553.004 48.3641 554.594 47.575 555.867C46.7859 557.133 46.0633 558.398 45.407 559.664ZM58.3164 553.676C58.3164 552.074 58.8945 550.766 60.0508 549.75C61.2148 548.727 62.7188 548.215 64.5625 548.215C66.3359 548.215 67.7812 548.676 68.8984 549.598C70.0156 550.512 70.5742 551.68 70.5742 553.102C70.5742 553.609 70.4961 554.102 70.3398 554.578C70.1914 555.047 69.9492 555.52 69.6133 555.996C69.2852 556.465 68.9531 556.891 68.6172 557.273C68.2812 557.648 67.8438 558.105 67.3047 558.645L63.1797 562.617V562.688H70.8086V565.5H58.5156V563.121L64.8906 556.98C65.75 556.121 66.3359 555.43 66.6484 554.906C66.9688 554.383 67.1289 553.828 67.1289 553.242C67.1289 552.602 66.875 552.062 66.3672 551.625C65.8594 551.188 65.2188 550.969 64.4453 550.969C63.625 550.969 62.9453 551.227 62.4062 551.742C61.8672 552.25 61.5977 552.895 61.5977 553.676V553.734H58.3164V553.676ZM84.8547 563.496C83.6437 565.082 81.9758 565.875 79.8508 565.875C77.7258 565.875 76.0539 565.086 74.8352 563.508C73.6164 561.922 73.007 559.758 73.007 557.016C73.007 554.289 73.6164 552.141 74.8352 550.57C76.0617 548.992 77.7336 548.203 79.8508 548.203C81.968 548.203 83.6359 548.988 84.8547 550.559C86.0734 552.129 86.6828 554.277 86.6828 557.004C86.6828 559.738 86.0734 561.902 84.8547 563.496ZM77.4602 561.457C78.0383 562.512 78.8352 563.039 79.8508 563.039C80.8664 563.039 81.6594 562.516 82.2297 561.469C82.8 560.414 83.0852 558.93 83.0852 557.016C83.0852 555.117 82.7961 553.648 82.218 552.609C81.6477 551.562 80.8586 551.039 79.8508 551.039C78.843 551.039 78.05 551.562 77.4719 552.609C76.8937 553.656 76.6047 555.125 76.6047 557.016C76.6047 558.922 76.8898 560.402 77.4602 561.457ZM97.1195 560.121H89.4203V557.133H97.1195V560.121ZM103.771 565.5V551.836H103.701L99.3883 554.812V551.625L103.759 548.59H107.275V565.5H103.771Z" fill="white"/>
</g>
<g >
<rect y="298" width="128" height="64" rx="12" fill="white"/>
<g >
<path  d="M86.4546 313H78.962V320.5C78.962 320.625 78.9463 320.719 78.9151 320.781C78.8527 321.125 78.6888 321.414 78.4234 321.648C78.1581 321.883 77.838 322 77.4634 322H69.9707V329.5C69.9707 329.625 69.9551 329.719 69.9239 329.781C69.8615 330.125 69.6976 330.414 69.4322 330.648C69.1668 330.883 68.8468 331 68.4722 331H60.9795V338.5C60.9795 338.625 60.9639 338.719 60.9327 338.781C60.8702 339.125 60.7063 339.414 60.441 339.648C60.1756 339.883 59.8556 340 59.481 340H51.9883V347.5C51.9883 347.625 51.9727 347.719 51.9415 347.781C51.879 348.125 51.7151 348.414 51.4498 348.648C51.1844 348.883 50.8644 349 50.4898 349H41.4985C41.0927 349 40.7415 348.852 40.4449 348.555C40.1483 348.258 40 347.906 40 347.5C40 347.094 40.1483 346.742 40.4449 346.445C40.7415 346.148 41.0927 346 41.4985 346H48.9912V338.5C48.9912 338.375 49.0068 338.281 49.038 338.219C49.1005 337.875 49.2722 337.586 49.5532 337.352C49.8341 337.117 50.1463 337 50.4898 337H57.9824V329.5C57.9824 329.375 57.998 329.281 58.0293 329.219C58.0917 328.875 58.2634 328.586 58.5444 328.352C58.8254 328.117 59.1376 328 59.481 328H66.9737V320.5C66.9737 320.406 66.9893 320.313 67.0205 320.219C67.0829 319.875 67.2546 319.586 67.5356 319.352C67.8166 319.117 68.1288 319 68.4722 319H75.9649V311.5C75.9649 311.375 75.9805 311.281 76.0117 311.219C76.0741 310.875 76.238 310.586 76.5034 310.352C76.7688 310.117 77.0888 310 77.4634 310H86.4546C86.8605 310 87.2117 310.148 87.5083 310.445C87.8049 310.742 87.9532 311.094 87.9532 311.5C87.9532 311.906 87.8049 312.258 87.5083 312.555C87.2117 312.852 86.8605 313 86.4546 313Z" fill="black"/>
</g>
</g>
<g >
<rect x="1024" y="248" width="128" height="64" rx="12" fill="white"/>
<g >
<path  d="M1110.45 263H1102.96V270.5C1102.96 270.625 1102.95 270.719 1102.92 270.781C1102.85 271.125 1102.69 271.414 1102.42 271.648C1102.16 271.883 1101.84 272 1101.46 272H1093.97V279.5C1093.97 279.625 1093.96 279.719 1093.92 279.781C1093.86 280.125 1093.7 280.414 1093.43 280.648C1093.17 280.883 1092.85 281 1092.47 281H1084.98V288.5C1084.98 288.625 1084.96 288.719 1084.93 288.781C1084.87 289.125 1084.71 289.414 1084.44 289.648C1084.18 289.883 1083.86 290 1083.48 290H1075.99V297.5C1075.99 297.625 1075.97 297.719 1075.94 297.781C1075.88 298.125 1075.72 298.414 1075.45 298.648C1075.18 298.883 1074.86 299 1074.49 299H1065.5C1065.09 299 1064.74 298.852 1064.44 298.555C1064.15 298.258 1064 297.906 1064 297.5C1064 297.094 1064.15 296.742 1064.44 296.445C1064.74 296.148 1065.09 296 1065.5 296H1072.99V288.5C1072.99 288.375 1073.01 288.281 1073.04 288.219C1073.1 287.875 1073.27 287.586 1073.55 287.352C1073.83 287.117 1074.15 287 1074.49 287H1081.98V279.5C1081.98 279.375 1082 279.281 1082.03 279.219C1082.09 278.875 1082.26 278.586 1082.54 278.352C1082.83 278.117 1083.14 278 1083.48 278H1090.97V270.5C1090.97 270.406 1090.99 270.313 1091.02 270.219C1091.08 269.875 1091.25 269.586 1091.54 269.352C1091.82 269.117 1092.13 269 1092.47 269H1099.96V261.5C1099.96 261.375 1099.98 261.281 1100.01 261.219C1100.07 260.875 1100.24 260.586 1100.5 260.352C1100.77 260.117 1101.09 260 1101.46 260H1110.45C1110.86 260 1111.21 260.148 1111.51 260.445C1111.8 260.742 1111.95 261.094 1111.95 261.5C1111.95 261.906 1111.8 262.258 1111.51 262.555C1111.21 262.852 1110.86 263 1110.45 263Z" fill="black"/>
</g>
</g>
<g data-room="В-78__Г-408">
<rect x="1024" y="704" width="128" height="56" rx="12" fill="#2563EB"/>
<path  d="M1048.42 743H1043.69V720.453H1058.22V724.359H1048.42V743ZM1070.02 735.828H1059.75V731.844H1070.02V735.828ZM1084.31 743V738.984H1073.09V734.969C1074.93 731.469 1077.94 726.63 1082.14 720.453H1088.8V735.203H1091.73V738.984H1088.8V743H1084.31ZM1077.23 735.219V735.344H1084.41V723.797H1084.31C1082.57 726.339 1081.18 728.458 1080.12 730.156C1079.07 731.844 1078.11 733.531 1077.23 735.219ZM1109.72 740.328C1108.1 742.443 1105.88 743.5 1103.05 743.5C1100.21 743.5 1097.98 742.448 1096.36 740.344C1094.73 738.229 1093.92 735.344 1093.92 731.688C1093.92 728.052 1094.73 725.188 1096.36 723.094C1097.99 720.99 1100.22 719.938 1103.05 719.938C1105.87 719.938 1108.09 720.984 1109.72 723.078C1111.34 725.172 1112.16 728.036 1112.16 731.672C1112.16 735.318 1111.34 738.203 1109.72 740.328ZM1099.86 737.609C1100.63 739.016 1101.69 739.719 1103.05 739.719C1104.4 739.719 1105.46 739.021 1106.22 737.625C1106.98 736.219 1107.36 734.24 1107.36 731.688C1107.36 729.156 1106.97 727.198 1106.2 725.812C1105.44 724.417 1104.39 723.719 1103.05 723.719C1101.7 723.719 1100.65 724.417 1099.88 725.812C1099.1 727.208 1098.72 729.167 1098.72 731.688C1098.72 734.229 1099.1 736.203 1099.86 737.609ZM1123.91 743.5C1121.18 743.5 1118.97 742.891 1117.28 741.672C1115.6 740.443 1114.77 738.849 1114.77 736.891C1114.77 735.411 1115.26 734.146 1116.23 733.094C1117.21 732.031 1118.49 731.37 1120.06 731.109V731.016C1118.75 730.714 1117.69 730.099 1116.88 729.172C1116.07 728.234 1115.67 727.146 1115.67 725.906C1115.67 724.177 1116.44 722.755 1117.98 721.641C1119.53 720.516 1121.5 719.953 1123.91 719.953C1126.32 719.953 1128.3 720.516 1129.83 721.641C1131.36 722.755 1132.12 724.182 1132.12 725.922C1132.12 727.141 1131.72 728.219 1130.92 729.156C1130.12 730.083 1129.06 730.703 1127.75 731.016V731.109C1129.33 731.38 1130.61 732.047 1131.58 733.109C1132.56 734.161 1133.05 735.427 1133.05 736.906C1133.05 738.865 1132.2 740.453 1130.5 741.672C1128.81 742.891 1126.61 743.5 1123.91 743.5ZM1120.86 739.078C1121.65 739.734 1122.67 740.062 1123.91 740.062C1125.15 740.062 1126.16 739.734 1126.94 739.078C1127.72 738.411 1128.11 737.568 1128.11 736.547C1128.11 735.526 1127.72 734.688 1126.94 734.031C1126.16 733.365 1125.15 733.031 1123.91 733.031C1122.67 733.031 1121.65 733.365 1120.86 734.031C1120.08 734.688 1119.69 735.526 1119.69 736.547C1119.69 737.568 1120.08 738.411 1120.86 739.078ZM1121.34 728.719C1122.01 729.302 1122.86 729.594 1123.91 729.594C1124.95 729.594 1125.8 729.302 1126.47 728.719C1127.14 728.125 1127.47 727.38 1127.47 726.484C1127.47 725.578 1127.14 724.833 1126.47 724.25C1125.8 723.656 1124.95 723.359 1123.91 723.359C1122.86 723.359 1122.01 723.656 1121.34 724.25C1120.68 724.833 1120.34 725.578 1120.34 726.484C1120.34 727.391 1120.68 728.135 1121.34 728.719Z" fill="white"/>
</g>
<g data-room="В-78__Г-407">
<rect x="1024" y="640" width="128" height="56" rx="12" fill="#2563EB"/>
<path  d="M1049.98 679H1045.25V656.453H1059.78V660.359H1049.98V679ZM1071.58 671.828H1061.31V667.844H1071.58V671.828ZM1085.88 679V674.984H1074.66V670.969C1076.49 667.469 1079.51 662.63 1083.7 656.453H1090.36V671.203H1093.3V674.984H1090.36V679H1085.88ZM1078.8 671.219V671.344H1085.97V659.797H1085.88C1084.14 662.339 1082.74 664.458 1081.69 666.156C1080.64 667.844 1079.67 669.531 1078.8 671.219ZM1111.28 676.328C1109.67 678.443 1107.44 679.5 1104.61 679.5C1101.78 679.5 1099.55 678.448 1097.92 676.344C1096.3 674.229 1095.48 671.344 1095.48 667.688C1095.48 664.052 1096.3 661.188 1097.92 659.094C1099.56 656.99 1101.79 655.938 1104.61 655.938C1107.43 655.938 1109.66 656.984 1111.28 659.078C1112.91 661.172 1113.72 664.036 1113.72 667.672C1113.72 671.318 1112.91 674.203 1111.28 676.328ZM1101.42 673.609C1102.19 675.016 1103.26 675.719 1104.61 675.719C1105.96 675.719 1107.02 675.021 1107.78 673.625C1108.54 672.219 1108.92 670.24 1108.92 667.688C1108.92 665.156 1108.54 663.198 1107.77 661.812C1107.01 660.417 1105.95 659.719 1104.61 659.719C1103.27 659.719 1102.21 660.417 1101.44 661.812C1100.67 663.208 1100.28 665.167 1100.28 667.688C1100.28 670.229 1100.66 672.203 1101.42 673.609ZM1117.23 679L1126.94 660.297V660.203H1115.47V656.453H1131.59V660.25L1122.19 679H1117.23Z" fill="white"/>
</g>
<g data-room="В-78__Г-407-1">
<rect x="1024" y="576" width="128" height="56" rx="12" fill="#2563EB"/>
<path  d="M1035.58 615H1030.84V592.453H1045.38V596.359H1035.58V615ZM1057.17 607.828H1046.91V603.844H1057.17V607.828ZM1071.47 615V610.984H1060.25V606.969C1062.08 603.469 1065.1 598.63 1069.3 592.453H1075.95V607.203H1078.89V610.984H1075.95V615H1071.47ZM1064.39 607.219V607.344H1071.56V595.797H1071.47C1069.73 598.339 1068.33 600.458 1067.28 602.156C1066.23 603.844 1065.27 605.531 1064.39 607.219ZM1096.88 612.328C1095.26 614.443 1093.04 615.5 1090.2 615.5C1087.37 615.5 1085.14 614.448 1083.52 612.344C1081.89 610.229 1081.08 607.344 1081.08 603.688C1081.08 600.052 1081.89 597.188 1083.52 595.094C1085.15 592.99 1087.38 591.938 1090.2 591.938C1093.03 591.938 1095.25 592.984 1096.88 595.078C1098.5 597.172 1099.31 600.036 1099.31 603.672C1099.31 607.318 1098.5 610.203 1096.88 612.328ZM1087.02 609.609C1087.79 611.016 1088.85 611.719 1090.2 611.719C1091.56 611.719 1092.61 611.021 1093.38 609.625C1094.14 608.219 1094.52 606.24 1094.52 603.688C1094.52 601.156 1094.13 599.198 1093.36 597.812C1092.6 596.417 1091.55 595.719 1090.2 595.719C1088.86 595.719 1087.8 596.417 1087.03 597.812C1086.26 599.208 1085.88 601.167 1085.88 603.688C1085.88 606.229 1086.26 608.203 1087.02 609.609ZM1102.83 615L1112.53 596.297V596.203H1101.06V592.453H1117.19V596.25L1107.78 615H1102.83ZM1130.58 607.828H1120.31V603.844H1130.58V607.828ZM1139.05 615V596.781H1138.95L1133.2 600.75V596.5L1139.03 592.453H1143.72V615H1139.05Z" fill="white"/>
</g>
<g data-room="В-78__Г-406">
<rect x="1024" y="512" width="128" height="56" rx="12" fill="#2563EB"/>
<path  d="M1048.56 551H1043.83V528.453H1058.36V532.359H1048.56V551ZM1070.16 543.828H1059.89V539.844H1070.16V543.828ZM1084.45 551V546.984H1073.23V542.969C1075.07 539.469 1078.08 534.63 1082.28 528.453H1088.94V543.203H1091.88V546.984H1088.94V551H1084.45ZM1077.38 543.219V543.344H1084.55V531.797H1084.45C1082.71 534.339 1081.32 536.458 1080.27 538.156C1079.21 539.844 1078.25 541.531 1077.38 543.219ZM1109.86 548.328C1108.24 550.443 1106.02 551.5 1103.19 551.5C1100.35 551.5 1098.12 550.448 1096.5 548.344C1094.88 546.229 1094.06 543.344 1094.06 539.688C1094.06 536.052 1094.88 533.188 1096.5 531.094C1098.14 528.99 1100.36 527.938 1103.19 527.938C1106.01 527.938 1108.23 528.984 1109.86 531.078C1111.48 533.172 1112.3 536.036 1112.3 539.672C1112.3 543.318 1111.48 546.203 1109.86 548.328ZM1100 545.609C1100.77 547.016 1101.83 547.719 1103.19 547.719C1104.54 547.719 1105.6 547.021 1106.36 545.625C1107.12 544.219 1107.5 542.24 1107.5 539.688C1107.5 537.156 1107.11 535.198 1106.34 533.812C1105.58 532.417 1104.53 531.719 1103.19 531.719C1101.84 531.719 1100.79 532.417 1100.02 533.812C1099.24 535.208 1098.86 537.167 1098.86 539.688C1098.86 542.229 1099.24 544.203 1100 545.609ZM1124.3 551.516C1122.67 551.516 1121.21 551.161 1119.92 550.453C1118.64 549.734 1117.6 548.703 1116.81 547.359C1115.55 545.432 1114.92 542.948 1114.92 539.906C1114.92 536.188 1115.77 533.266 1117.45 531.141C1119.14 529.005 1121.45 527.938 1124.38 527.938C1126.52 527.938 1128.36 528.516 1129.89 529.672C1131.42 530.828 1132.34 532.328 1132.66 534.172H1128.02C1127.79 533.422 1127.34 532.818 1126.67 532.359C1126.01 531.901 1125.23 531.672 1124.34 531.672C1122.76 531.672 1121.53 532.391 1120.64 533.828C1119.77 535.266 1119.35 537.25 1119.41 539.781H1119.5C1119.96 538.667 1120.72 537.776 1121.78 537.109C1122.84 536.443 1124.08 536.109 1125.5 536.109C1127.65 536.109 1129.42 536.818 1130.83 538.234C1132.24 539.641 1132.95 541.411 1132.95 543.547C1132.95 545.87 1132.14 547.781 1130.52 549.281C1128.89 550.771 1126.82 551.516 1124.3 551.516ZM1124.25 547.75C1125.4 547.75 1126.36 547.359 1127.16 546.578C1127.96 545.786 1128.36 544.823 1128.36 543.688C1128.36 542.521 1127.97 541.557 1127.19 540.797C1126.42 540.036 1125.44 539.656 1124.27 539.656C1123.09 539.656 1122.1 540.036 1121.31 540.797C1120.53 541.557 1120.14 542.505 1120.14 543.641C1120.14 544.786 1120.54 545.76 1121.33 546.562C1122.12 547.354 1123.09 547.75 1124.25 547.75Z" fill="white"/>
</g>
<g data-room="В-78__Г-405">
<rect x="1024" y="448" width="128" height="56" rx="12" fill="#2563EB"/>
<path  d="M1048.94 487H1044.2V464.453H1058.73V468.359H1048.94V487ZM1070.53 479.828H1060.27V475.844H1070.53V479.828ZM1084.83 487V482.984H1073.61V478.969C1075.44 475.469 1078.46 470.63 1082.66 464.453H1089.31V479.203H1092.25V482.984H1089.31V487H1084.83ZM1077.75 479.219V479.344H1084.92V467.797H1084.83C1083.09 470.339 1081.69 472.458 1080.64 474.156C1079.59 475.844 1078.62 477.531 1077.75 479.219ZM1110.23 484.328C1108.62 486.443 1106.4 487.5 1103.56 487.5C1100.73 487.5 1098.5 486.448 1096.88 484.344C1095.25 482.229 1094.44 479.344 1094.44 475.688C1094.44 472.052 1095.25 469.188 1096.88 467.094C1098.51 464.99 1100.74 463.938 1103.56 463.938C1106.39 463.938 1108.61 464.984 1110.23 467.078C1111.86 469.172 1112.67 472.036 1112.67 475.672C1112.67 479.318 1111.86 482.203 1110.23 484.328ZM1100.38 481.609C1101.15 483.016 1102.21 483.719 1103.56 483.719C1104.92 483.719 1105.97 483.021 1106.73 481.625C1107.49 480.219 1107.88 478.24 1107.88 475.688C1107.88 473.156 1107.49 471.198 1106.72 469.812C1105.96 468.417 1104.91 467.719 1103.56 467.719C1102.22 467.719 1101.16 468.417 1100.39 469.812C1099.62 471.208 1099.23 473.167 1099.23 475.688C1099.23 478.229 1099.61 480.203 1100.38 481.609ZM1124.09 487.5C1121.68 487.5 1119.68 486.854 1118.09 485.562C1116.52 484.26 1115.7 482.589 1115.62 480.547H1119.98C1120.12 481.505 1120.57 482.281 1121.33 482.875C1122.1 483.469 1123.03 483.766 1124.12 483.766C1125.35 483.766 1126.35 483.38 1127.12 482.609C1127.91 481.828 1128.3 480.823 1128.3 479.594C1128.3 478.344 1127.91 477.323 1127.14 476.531C1126.37 475.74 1125.38 475.344 1124.16 475.344C1123.3 475.344 1122.53 475.531 1121.83 475.906C1121.14 476.271 1120.6 476.776 1120.2 477.422H1115.98L1117.09 464.453H1131.44V468.203H1120.8L1120.28 474.375H1120.38C1120.84 473.604 1121.51 473 1122.38 472.562C1123.25 472.125 1124.26 471.906 1125.39 471.906C1127.55 471.906 1129.32 472.62 1130.7 474.047C1132.1 475.464 1132.8 477.271 1132.8 479.469C1132.8 481.854 1131.99 483.792 1130.38 485.281C1128.77 486.76 1126.68 487.5 1124.09 487.5Z" fill="white"/>
</g>
<g data-room="В-78__Г-404">
<rect x="1024" y="384" width="128" height="56" rx="12" fill="#2563EB"/>
<path  d="M1048.48 423H1043.75V400.453H1058.28V404.359H1048.48V423ZM1070.08 415.828H1059.81V411.844H1070.08V415.828ZM1084.38 423V418.984H1073.16V414.969C1074.99 411.469 1078.01 406.63 1082.2 400.453H1088.86V415.203H1091.8V418.984H1088.86V423H1084.38ZM1077.3 415.219V415.344H1084.47V403.797H1084.38C1082.64 406.339 1081.24 408.458 1080.19 410.156C1079.14 411.844 1078.17 413.531 1077.3 415.219ZM1109.78 420.328C1108.17 422.443 1105.94 423.5 1103.11 423.5C1100.28 423.5 1098.05 422.448 1096.42 420.344C1094.8 418.229 1093.98 415.344 1093.98 411.688C1093.98 408.052 1094.8 405.188 1096.42 403.094C1098.06 400.99 1100.29 399.938 1103.11 399.938C1105.93 399.938 1108.16 400.984 1109.78 403.078C1111.41 405.172 1112.22 408.036 1112.22 411.672C1112.22 415.318 1111.41 418.203 1109.78 420.328ZM1099.92 417.609C1100.69 419.016 1101.76 419.719 1103.11 419.719C1104.46 419.719 1105.52 419.021 1106.28 417.625C1107.04 416.219 1107.42 414.24 1107.42 411.688C1107.42 409.156 1107.04 407.198 1106.27 405.812C1105.51 404.417 1104.45 403.719 1103.11 403.719C1101.77 403.719 1100.71 404.417 1099.94 405.812C1099.17 407.208 1098.78 409.167 1098.78 411.688C1098.78 414.229 1099.16 416.203 1099.92 417.609ZM1125.88 423V418.984H1114.66V414.969C1116.49 411.469 1119.51 406.63 1123.7 400.453H1130.36V415.203H1133.3V418.984H1130.36V423H1125.88ZM1118.8 415.219V415.344H1125.97V403.797H1125.88C1124.14 406.339 1122.74 408.458 1121.69 410.156C1120.64 411.844 1119.67 413.531 1118.8 415.219Z" fill="white"/>
</g>
<g data-room="В-78__Г-403">
<rect x="1024" y="320" width="128" height="56" rx="12" fill="#2563EB"/>
<path  d="M1048.78 359H1044.05V336.453H1058.58V340.359H1048.78V359ZM1070.38 351.828H1060.11V347.844H1070.38V351.828ZM1084.67 359V354.984H1073.45V350.969C1075.29 347.469 1078.3 342.63 1082.5 336.453H1089.16V351.203H1092.09V354.984H1089.16V359H1084.67ZM1077.59 351.219V351.344H1084.77V339.797H1084.67C1082.93 342.339 1081.54 344.458 1080.48 346.156C1079.43 347.844 1078.47 349.531 1077.59 351.219ZM1110.08 356.328C1108.46 358.443 1106.24 359.5 1103.41 359.5C1100.57 359.5 1098.34 358.448 1096.72 356.344C1095.09 354.229 1094.28 351.344 1094.28 347.688C1094.28 344.052 1095.09 341.188 1096.72 339.094C1098.35 336.99 1100.58 335.938 1103.41 335.938C1106.23 335.938 1108.45 336.984 1110.08 339.078C1111.7 341.172 1112.52 344.036 1112.52 347.672C1112.52 351.318 1111.7 354.203 1110.08 356.328ZM1100.22 353.609C1100.99 355.016 1102.05 355.719 1103.41 355.719C1104.76 355.719 1105.82 355.021 1106.58 353.625C1107.34 352.219 1107.72 350.24 1107.72 347.688C1107.72 345.156 1107.33 343.198 1106.56 341.812C1105.8 340.417 1104.75 339.719 1103.41 339.719C1102.06 339.719 1101.01 340.417 1100.23 341.812C1099.46 343.208 1099.08 345.167 1099.08 347.688C1099.08 350.229 1099.46 352.203 1100.22 353.609ZM1120.91 349.156V345.75H1123.64C1124.71 345.75 1125.58 345.458 1126.25 344.875C1126.92 344.292 1127.25 343.536 1127.25 342.609C1127.25 341.682 1126.93 340.948 1126.3 340.406C1125.66 339.854 1124.77 339.578 1123.61 339.578C1122.52 339.578 1121.63 339.875 1120.95 340.469C1120.28 341.062 1119.91 341.854 1119.84 342.844H1115.5C1115.58 340.75 1116.38 339.078 1117.89 337.828C1119.4 336.578 1121.38 335.953 1123.81 335.953C1126.17 335.953 1128.07 336.505 1129.52 337.609C1130.97 338.714 1131.7 340.167 1131.7 341.969C1131.7 343.333 1131.28 344.49 1130.42 345.438C1129.57 346.385 1128.44 346.984 1127.05 347.234V347.328C1128.74 347.474 1130.09 348.031 1131.08 349C1132.08 349.958 1132.58 351.214 1132.58 352.766C1132.58 354.776 1131.75 356.401 1130.09 357.641C1128.45 358.88 1126.32 359.5 1123.7 359.5C1121.17 359.5 1119.12 358.865 1117.56 357.594C1116.01 356.323 1115.18 354.641 1115.06 352.547H1119.58C1119.65 353.505 1120.06 354.271 1120.8 354.844C1121.55 355.417 1122.54 355.703 1123.77 355.703C1124.94 355.703 1125.91 355.401 1126.66 354.797C1127.41 354.193 1127.78 353.417 1127.78 352.469C1127.78 351.438 1127.42 350.63 1126.69 350.047C1125.96 349.453 1124.96 349.156 1123.69 349.156H1120.91Z" fill="white"/>
</g>
<g data-room="В-78__Г-409">
<rect x="1024" y="768" width="128" height="56" rx="12" fill="#2563EB"/>
<path  d="M1048.53 807H1043.8V784.453H1058.33V788.359H1048.53V807ZM1070.12 799.828H1059.86V795.844H1070.12V799.828ZM1084.42 807V802.984H1073.2V798.969C1075.04 795.469 1078.05 790.63 1082.25 784.453H1088.91V799.203H1091.84V802.984H1088.91V807H1084.42ZM1077.34 799.219V799.344H1084.52V787.797H1084.42C1082.68 790.339 1081.29 792.458 1080.23 794.156C1079.18 795.844 1078.22 797.531 1077.34 799.219ZM1109.83 804.328C1108.21 806.443 1105.99 807.5 1103.16 807.5C1100.32 807.5 1098.09 806.448 1096.47 804.344C1094.84 802.229 1094.03 799.344 1094.03 795.688C1094.03 792.052 1094.84 789.188 1096.47 787.094C1098.1 784.99 1100.33 783.938 1103.16 783.938C1105.98 783.938 1108.2 784.984 1109.83 787.078C1111.45 789.172 1112.27 792.036 1112.27 795.672C1112.27 799.318 1111.45 802.203 1109.83 804.328ZM1099.97 801.609C1100.74 803.016 1101.8 803.719 1103.16 803.719C1104.51 803.719 1105.57 803.021 1106.33 801.625C1107.09 800.219 1107.47 798.24 1107.47 795.688C1107.47 793.156 1107.08 791.198 1106.31 789.812C1105.55 788.417 1104.5 787.719 1103.16 787.719C1101.81 787.719 1100.76 788.417 1099.98 789.812C1099.21 791.208 1098.83 793.167 1098.83 795.688C1098.83 798.229 1099.21 800.203 1099.97 801.609ZM1123.44 807.5C1121.28 807.5 1119.43 806.922 1117.89 805.766C1116.35 804.599 1115.42 803.094 1115.11 801.25H1119.77C1119.99 802.01 1120.45 802.62 1121.12 803.078C1121.81 803.536 1122.61 803.766 1123.52 803.766C1125.09 803.766 1126.31 803.052 1127.17 801.625C1128.05 800.198 1128.45 798.203 1128.39 795.641H1128.34H1128.31H1128.3C1127.88 796.766 1127.14 797.661 1126.08 798.328C1125.02 798.995 1123.76 799.328 1122.3 799.328C1120.16 799.328 1118.38 798.625 1116.95 797.219C1115.53 795.802 1114.81 794.026 1114.81 791.891C1114.81 789.578 1115.63 787.677 1117.27 786.188C1118.9 784.688 1120.98 783.938 1123.5 783.938C1125.14 783.938 1126.6 784.292 1127.89 785C1129.19 785.708 1130.23 786.729 1131.02 788.062C1132.28 790 1132.91 792.49 1132.91 795.531C1132.91 799.271 1132.07 802.203 1130.39 804.328C1128.72 806.443 1126.41 807.5 1123.44 807.5ZM1120.59 794.641C1121.38 795.401 1122.35 795.781 1123.53 795.781C1124.71 795.781 1125.69 795.401 1126.47 794.641C1127.26 793.87 1127.66 792.917 1127.66 791.781C1127.66 790.635 1127.26 789.672 1126.47 788.891C1125.68 788.099 1124.71 787.703 1123.56 787.703C1122.41 787.703 1121.43 788.094 1120.62 788.875C1119.82 789.656 1119.42 790.615 1119.42 791.75C1119.42 792.906 1119.81 793.87 1120.59 794.641Z" fill="white"/>
</g>
<rect  x="1016" y="804" width="16" height="8" transform="rotate(-90 1016 804)" fill="#DADADA"/>
<rect  x="1048" y="824" width="16" height="8" fill="#DADADA"/>
<rect  x="1016" y="740" width="16" height="8" transform="rotate(-90 1016 740)" fill="#DADADA"/>
<rect  x="1016" y="676" width="16" height="8" transform="rotate(-90 1016 676)" fill="#DADADA"/>
<rect  x="1016" y="548" width="16" height="8" transform="rotate(-90 1016 548)" fill="#DADADA"/>
<rect  x="1056" y="632" width="16" height="8" fill="#DADADA"/>
<rect  x="1016" y="484" width="16" height="8" transform="rotate(-90 1016 484)" fill="#DADADA"/>
<rect  x="1016" y="420" width="16" height="8" transform="rotate(-90 1016 420)" fill="#DADADA"/>
<rect  x="1016" y="356" width="16" height="8" transform="rotate(-90 1016 356)" fill="#DADADA"/>
<rect  x="1016" y="208" width="16" height="8" transform="rotate(-90 1016 208)" fill="#DADADA"/>
<rect  x="552" y="266" width="16" height="8" transform="rotate(-90 552 266)" fill="#DADADA"/>
<g data-room="В-78__Г-410">
<rect x="1024" y="832" width="128" height="56" rx="12" fill="#2563EB"/>
<path  d="M1051.2 871H1046.47V848.453H1061V852.359H1051.2V871ZM1072.8 863.828H1062.53V859.844H1072.8V863.828ZM1087.09 871V866.984H1075.88V862.969C1077.71 859.469 1080.72 854.63 1084.92 848.453H1091.58V863.203H1094.52V866.984H1091.58V871H1087.09ZM1080.02 863.219V863.344H1087.19V851.797H1087.09C1085.35 854.339 1083.96 856.458 1082.91 858.156C1081.85 859.844 1080.89 861.531 1080.02 863.219ZM1102.58 871V852.781H1102.48L1096.73 856.75V852.5L1102.56 848.453H1107.25V871H1102.58ZM1127.81 868.328C1126.2 870.443 1123.97 871.5 1121.14 871.5C1118.31 871.5 1116.08 870.448 1114.45 868.344C1112.83 866.229 1112.02 863.344 1112.02 859.688C1112.02 856.052 1112.83 853.188 1114.45 851.094C1116.09 848.99 1118.32 847.938 1121.14 847.938C1123.96 847.938 1126.19 848.984 1127.81 851.078C1129.44 853.172 1130.25 856.036 1130.25 859.672C1130.25 863.318 1129.44 866.203 1127.81 868.328ZM1117.95 865.609C1118.72 867.016 1119.79 867.719 1121.14 867.719C1122.49 867.719 1123.55 867.021 1124.31 865.625C1125.07 864.219 1125.45 862.24 1125.45 859.688C1125.45 857.156 1125.07 855.198 1124.3 853.812C1123.54 852.417 1122.48 851.719 1121.14 851.719C1119.8 851.719 1118.74 852.417 1117.97 853.812C1117.2 855.208 1116.81 857.167 1116.81 859.688C1116.81 862.229 1117.19 864.203 1117.95 865.609Z" fill="white"/>
</g>
<rect  x="512" y="218" width="16" height="8" fill="#DADADA"/>
<rect  x="440" y="218" width="16" height="8" fill="#DADADA"/>
<rect  x="368" y="218" width="16" height="8" fill="#DADADA"/>
<rect  x="240" y="218" width="16" height="8" fill="#DADADA"/>
<rect  x="160" y="128" width="16" height="8" fill="#DADADA"/>
<rect  x="128" y="258" width="16" height="8" transform="rotate(-90 128 258)" fill="#DADADA"/>
<rect  x="128" y="410" width="16" height="8" transform="rotate(-90 128 410)" fill="#DADADA"/>
<rect  x="128" y="482" width="16" height="8" transform="rotate(-90 128 482)" fill="#DADADA"/>
<rect  x="128" y="565" width="16" height="8" transform="rotate(-90 128 565)" fill="#DADADA"/>
<rect  x="128" y="648" width="16" height="8" transform="rotate(-90 128 648)" fill="#DADADA"/>
<rect  x="128" y="720" width="16" height="8" transform="rotate(-90 128 720)" fill="#DADADA"/>
<rect  x="128" y="792" width="16" height="8" transform="rotate(-90 128 792)" fill="#DADADA"/>
<rect  x="128" y="864" width="16" height="8" transform="rotate(-90 128 864)" fill="#DADADA"/>
<g  clip-path="url(#clip1_906_333)">
<path  d="M559.375 603V453.875H637.75V422.625H521.5V603H559.375Z" fill="#2563EB"/>
</g>
<g data-room="В-78__Г-401-1">
<rect x="952" width="64" height="128" rx="12" fill="#2563EB"/>
<path  d="M992.5 103.267V106.818H975.59V95.9195H978.52V103.267H992.5ZM987.121 86.7719V94.4711H984.133V86.7719H987.121ZM992.5 75.7492H989.488V84.1633H986.477C983.852 82.7883 980.223 80.5266 975.59 77.3781V72.3859H986.652V70.1828H989.488V72.3859H992.5V75.7492ZM986.664 81.0578H986.758V75.6789H978.098V75.7492C980.004 77.0539 981.594 78.1008 982.867 78.8898C984.133 79.6789 985.398 80.4016 986.664 81.0578ZM990.496 56.3945C992.082 57.6055 992.875 59.2734 992.875 61.3984C992.875 63.5234 992.086 65.1953 990.508 66.4141C988.922 67.6328 986.758 68.2422 984.016 68.2422C981.289 68.2422 979.141 67.6328 977.57 66.4141C975.992 65.1875 975.203 63.5156 975.203 61.3984C975.203 59.2812 975.988 57.6133 977.559 56.3945C979.129 55.1758 981.277 54.5664 984.004 54.5664C986.738 54.5664 988.902 55.1758 990.496 56.3945ZM988.457 63.7891C989.512 63.2109 990.039 62.4141 990.039 61.3984C990.039 60.3828 989.516 59.5898 988.469 59.0195C987.414 58.4492 985.93 58.1641 984.016 58.1641C982.117 58.1641 980.648 58.4531 979.609 59.0312C978.562 59.6016 978.039 60.3906 978.039 61.3984C978.039 62.4062 978.562 63.1992 979.609 63.7773C980.656 64.3555 982.125 64.6445 984.016 64.6445C985.922 64.6445 987.402 64.3594 988.457 63.7891ZM992.5 47.9734H978.836V48.0438L981.812 52.3563H978.625L975.59 47.9852V44.4695H992.5V47.9734ZM987.121 32.4156V40.1148H984.133V32.4156H987.121ZM992.5 25.7641H978.836V25.8344L981.812 30.1469H978.625L975.59 25.7758V22.2602H992.5V25.7641Z" fill="white"/>
</g>
</g>
<defs>
<clipPath >
<rect width="48" height="48" fill="white" transform="translate(670 748)"/>
</clipPath>
<clipPath >
<rect width="141" height="358" fill="white" transform="translate(505 333)"/>
</clipPath>
</defs>
</svg>
